<?xml version="1.0" encoding="UTF-8" ?>
<!DOCTYPE svg PUBLIC "-//W3C//DTD SVG 1.1//EN" "http://www.w3.org/Graphics/SVG/1.1/DTD/svg11.dtd">
<svg width="631pt" height="446pt" viewBox="0 0 631 446" version="1.1" xmlns="http://www.w3.org/2000/svg">
<g id="#ffffffff">
<path fill="#ffffff" stroke="#ffffff" stroke-width="0.09375" opacity="1.00" d=" M 526.60 190.64 C 529.72 196.76 530.90 203.87 529.64 210.66 C 528.69 212.65 528.76 215.47 526.57 216.59 C 522.28 219.59 517.11 220.94 512.79 223.85 C 510.06 225.77 507.20 223.86 504.29 223.98 C 503.61 224.91 503.03 225.89 502.53 226.93 C 504.79 228.67 506.39 232.01 509.77 231.03 C 514.30 228.36 518.94 225.81 523.88 223.94 C 527.53 222.05 530.84 219.34 533.39 216.13 C 535.99 212.59 534.73 208.06 534.99 203.99 L 536.00 203.99 C 536.03 208.72 536.43 213.74 534.15 218.07 C 533.17 220.61 530.67 222.06 529.62 224.55 C 528.09 228.03 523.91 228.34 521.31 230.60 C 515.03 232.61 508.42 231.90 501.94 232.02 C 498.58 232.08 495.27 231.18 492.29 229.70 C 489.57 228.42 486.46 227.90 484.06 226.01 C 488.28 225.48 492.62 228.62 496.50 225.62 C 494.27 220.09 487.54 222.13 483.27 219.74 C 478.78 217.78 475.43 214.06 471.12 211.81 C 468.76 209.90 466.39 207.92 464.45 205.58 C 468.60 208.78 473.03 211.61 477.07 214.97 C 479.68 217.20 483.23 217.53 486.25 218.97 C 491.40 220.26 496.53 222.12 501.93 222.02 C 507.20 221.95 512.88 222.68 517.61 219.80 C 522.30 217.93 525.17 213.65 527.79 209.57 C 528.83 203.19 527.32 196.93 526.60 190.64 Z" />
<path fill="#ffffff" stroke="#ffffff" stroke-width="0.09375" opacity="1.00" d=" M 461.34 203.31 C 462.66 202.74 464.81 205.73 463.07 206.37 C 461.82 206.09 461.10 204.48 461.34 203.31 Z" />
<path fill="#ffffff" stroke="#ffffff" stroke-width="0.09375" opacity="1.00" d=" M 468.00 215.79 C 473.65 218.31 477.91 223.47 483.97 225.05 C 483.42 227.59 479.69 225.68 478.26 227.29 C 477.23 228.36 475.48 229.26 475.98 231.03 C 477.73 238.75 478.20 246.73 480.46 254.36 C 482.23 258.49 482.91 263.00 484.89 267.06 C 488.69 273.89 492.68 280.58 496.85 287.20 C 496.27 287.12 495.12 286.96 494.54 286.88 C 489.60 281.90 484.06 277.06 481.93 270.12 C 478.41 266.23 475.26 261.82 472.51 257.33 C 470.69 255.75 469.09 253.96 467.77 251.95 C 468.66 249.60 469.45 247.12 468.29 244.70 C 467.02 241.75 469.11 239.27 470.56 236.90 C 470.43 233.68 468.30 231.00 466.98 228.17 C 468.93 224.35 467.64 219.89 468.00 215.79 Z" />
<path fill="#ffffff" stroke="#ffffff" stroke-width="0.09375" opacity="1.00" d=" M 370.00 262.23 C 370.94 261.76 371.87 261.28 372.81 260.81 C 373.23 262.86 373.69 264.89 374.10 266.94 C 372.70 266.24 371.34 265.49 369.98 264.75 C 369.98 264.12 370.00 262.86 370.00 262.23 Z" />
</g>
<g id="#000000ff">
<path fill="#000000" stroke="#000000" stroke-width="0.09375" opacity="1.00" d=" M 87.80 49.75 C 96.79 48.22 105.02 43.63 114.02 42.01 C 119.53 42.19 125.16 41.51 130.59 42.38 C 136.74 45.42 144.62 41.01 150.09 45.89 C 155.68 51.40 162.58 55.33 168.30 60.70 C 171.52 63.43 175.44 65.09 179.00 67.31 C 178.99 69.02 178.99 70.73 179.00 72.43 C 177.90 73.32 176.83 74.25 175.80 75.21 C 182.86 75.47 190.15 75.92 196.57 79.17 C 199.17 81.70 202.06 84.08 203.65 87.43 C 207.26 92.76 214.00 93.20 219.56 95.25 C 223.37 97.95 225.40 102.25 226.27 106.72 C 228.95 110.17 234.09 110.74 236.52 114.51 C 238.13 116.91 240.67 118.58 241.91 121.24 C 243.11 123.67 244.50 126.00 246.02 128.24 C 247.34 133.54 246.76 139.42 249.71 144.26 C 252.31 148.43 257.93 147.48 261.38 150.53 C 266.73 153.35 270.76 158.21 275.98 161.04 C 276.89 162.63 278.55 163.23 280.20 163.77 C 283.30 164.68 285.21 167.82 288.47 168.34 C 291.67 169.03 294.69 170.63 298.03 170.51 C 301.98 170.55 305.75 171.78 309.62 172.34 C 314.97 173.67 320.51 173.33 325.95 173.75 C 331.65 174.55 337.55 173.14 343.13 174.87 C 361.99 175.31 380.90 174.66 399.75 175.18 C 404.19 177.05 409.35 174.67 413.53 177.30 C 417.65 177.19 421.47 178.51 425.28 179.92 C 442.20 182.83 456.68 192.75 470.19 202.79 C 475.27 206.00 479.21 211.19 485.39 212.43 C 489.85 214.52 494.93 214.52 499.38 216.63 C 505.79 218.01 512.62 216.72 518.02 212.97 C 519.68 211.29 522.16 209.76 521.97 207.07 C 521.86 201.65 522.79 195.39 519.15 190.85 C 515.52 185.88 514.16 179.82 511.33 174.45 C 510.50 171.30 510.24 168.00 508.99 164.96 C 506.44 158.37 506.84 151.11 508.00 144.28 C 509.54 140.90 511.04 137.39 513.29 134.40 C 518.16 131.62 522.07 127.28 527.38 125.30 C 530.05 124.80 532.48 123.58 535.00 122.63 C 538.70 122.06 542.48 122.04 546.11 121.06 C 551.71 120.92 557.33 120.98 562.93 121.03 C 568.08 122.44 573.20 124.19 578.46 125.33 C 582.13 126.94 585.53 129.09 589.15 130.82 C 592.47 132.38 594.04 135.93 596.59 138.37 C 599.48 140.96 601.11 144.56 603.43 147.62 C 604.56 149.13 605.06 151.02 605.00 152.90 C 605.01 170.27 604.98 187.64 605.01 205.01 C 603.64 205.69 602.28 206.38 600.97 207.15 C 598.77 206.24 596.45 205.84 594.08 205.90 C 591.74 202.70 588.74 199.62 588.31 195.49 C 587.12 190.41 587.00 184.71 583.35 180.61 C 581.47 178.77 580.04 176.00 577.15 175.72 C 571.37 174.67 566.77 170.65 561.27 168.88 C 553.37 167.52 545.80 163.46 540.77 157.16 C 538.90 155.56 540.38 151.59 543.01 152.45 C 546.02 154.21 548.77 156.36 551.38 158.65 C 555.70 160.82 560.04 163.00 564.84 163.88 C 570.89 168.20 578.78 168.74 584.60 173.36 C 587.69 174.59 588.59 177.99 590.45 180.44 C 591.28 179.04 590.96 176.33 592.92 176.03 C 594.87 183.28 591.45 191.63 595.53 198.44 C 596.59 200.92 599.73 201.02 602.06 201.15 C 602.37 197.00 600.79 193.09 600.67 188.98 C 600.09 178.34 600.98 167.69 600.46 157.05 C 597.84 147.39 591.28 138.62 582.47 133.68 C 578.82 131.60 574.51 131.68 570.54 130.61 C 567.04 129.11 563.40 127.98 559.84 126.66 C 550.25 126.20 540.12 126.01 531.29 130.33 C 525.32 131.89 520.42 135.93 516.27 140.31 C 513.54 142.99 513.94 147.10 514.00 150.59 C 516.36 148.67 518.87 146.94 521.40 145.24 C 523.18 144.88 525.01 145.08 526.82 144.87 C 530.85 142.54 535.62 143.77 540.03 143.49 C 542.58 143.16 544.18 145.59 546.27 146.62 C 545.50 147.45 544.73 148.27 543.97 149.10 C 541.84 146.47 538.29 147.31 536.00 149.22 C 535.99 150.46 535.99 151.69 536.00 152.93 C 533.86 151.21 531.48 152.77 529.21 153.25 C 527.47 151.50 528.09 149.38 529.04 147.41 C 526.26 147.16 523.63 147.85 521.32 149.38 C 519.78 151.16 518.48 153.13 517.09 155.02 C 516.04 154.30 515.01 153.56 514.00 152.81 C 513.99 155.32 513.99 157.83 514.00 160.34 C 515.81 159.06 517.41 157.50 519.34 156.39 C 520.08 159.82 518.16 164.19 521.06 166.86 C 520.10 167.26 519.15 167.68 518.20 168.10 C 517.03 167.54 515.84 167.03 514.64 166.56 C 515.34 167.79 516.52 168.79 516.92 170.18 C 518.19 174.97 519.62 179.74 521.63 184.27 C 522.12 185.94 523.76 186.76 524.96 187.88 C 524.97 186.42 524.99 184.97 525.00 183.51 C 520.56 180.31 519.97 173.59 522.07 168.87 C 523.95 169.05 526.29 168.61 527.51 170.47 C 531.33 174.78 534.58 180.20 535.05 186.02 C 533.49 185.51 531.91 185.06 530.31 184.71 C 530.94 189.55 533.44 193.81 535.10 198.34 C 536.71 196.26 539.86 194.79 541.87 197.28 C 543.05 204.49 543.17 212.33 540.06 219.12 C 538.88 221.25 537.67 223.37 536.61 225.57 C 533.68 228.97 530.41 232.09 527.14 235.16 C 524.10 236.24 521.40 238.71 518.04 238.52 C 512.35 238.48 506.67 238.52 500.99 238.50 C 498.87 238.65 497.05 237.48 495.11 236.89 C 491.84 235.73 488.37 235.30 485.10 234.17 C 484.55 234.45 483.45 235.00 482.90 235.27 C 482.75 238.11 483.62 240.80 484.27 243.52 C 485.53 254.26 489.90 264.39 495.50 273.55 C 497.27 277.09 499.75 280.21 501.26 283.88 C 503.09 285.67 505.39 286.97 507.38 288.62 C 509.92 289.74 512.63 290.55 514.92 292.19 C 518.01 293.82 521.50 294.63 524.57 296.34 C 528.40 298.53 533.23 298.47 536.77 301.25 C 537.94 302.67 539.63 303.82 540.17 305.66 C 542.07 312.60 544.78 319.49 544.58 326.81 C 545.11 330.81 544.86 334.86 545.14 338.87 C 546.88 348.55 548.34 358.73 545.47 368.36 C 542.61 374.25 537.30 378.75 531.74 382.01 C 524.15 383.68 516.01 380.85 508.67 383.87 C 502.73 385.09 497.21 388.58 490.99 388.04 C 486.57 388.51 482.62 386.15 478.77 384.34 C 473.93 382.08 470.95 376.76 471.99 371.45 C 474.52 369.21 476.78 366.16 480.32 365.57 C 485.59 364.75 491.20 363.06 494.34 358.40 C 498.18 357.36 500.33 353.62 502.66 350.68 C 504.10 348.08 506.71 346.36 508.08 343.74 C 507.93 340.67 505.97 338.16 504.71 335.48 C 503.16 333.01 502.36 329.82 499.68 328.28 C 496.13 327.14 492.47 326.33 488.96 325.08 C 485.83 323.89 482.40 324.95 479.20 324.27 C 477.49 323.57 475.91 322.62 474.20 321.96 C 468.04 320.71 462.22 318.08 455.95 317.34 C 453.52 316.07 450.87 315.91 448.18 315.90 C 445.61 314.56 442.98 312.87 439.98 313.01 C 436.15 313.31 432.80 311.19 429.41 309.77 C 424.51 307.91 418.82 308.41 414.31 305.53 C 419.19 312.04 424.06 318.54 429.13 324.91 C 433.28 329.80 431.47 336.77 429.11 342.06 C 425.70 349.16 426.55 357.60 422.41 364.42 C 417.70 369.24 412.58 373.68 406.34 376.39 C 403.36 383.12 395.39 384.18 389.74 387.72 C 387.19 389.62 383.92 388.92 381.00 388.69 C 374.07 389.11 367.10 389.13 360.16 388.88 C 354.51 387.25 348.99 385.14 343.41 383.29 C 341.00 384.87 337.27 386.23 335.06 383.60 C 333.50 381.15 335.21 378.24 335.76 375.72 C 336.20 372.45 338.08 369.61 338.25 366.28 C 340.95 363.23 345.50 363.89 348.62 361.51 C 354.51 357.44 361.95 359.45 368.45 357.43 C 374.14 356.18 378.89 352.57 383.67 349.44 C 387.90 345.72 390.80 339.53 388.00 334.07 C 385.21 333.33 382.51 332.33 379.93 331.04 C 373.60 328.66 367.02 326.55 361.47 322.56 C 355.61 319.39 349.29 317.05 343.84 313.19 C 338.75 308.25 333.82 303.13 328.73 298.20 C 325.20 295.66 322.18 292.49 319.60 289.00 C 313.24 289.39 306.95 288.52 300.75 287.19 C 296.10 286.51 291.28 287.73 286.72 286.31 C 283.56 285.53 280.08 286.70 277.10 285.09 C 274.71 284.41 272.27 283.91 269.92 283.09 C 258.11 282.72 246.23 283.64 234.50 281.92 C 234.67 291.22 234.00 300.56 235.17 309.81 C 236.10 312.44 237.14 315.11 237.01 317.96 C 236.87 324.49 237.59 331.17 235.75 337.54 C 234.82 339.64 233.50 341.53 232.51 343.61 C 231.32 344.74 229.67 345.52 229.11 347.19 C 228.40 353.97 230.49 361.37 226.72 367.52 C 223.35 370.95 221.87 376.29 217.10 378.20 C 214.12 379.57 211.43 382.21 207.98 382.00 C 200.47 381.61 193.62 385.17 186.87 387.92 C 184.31 388.10 181.75 388.09 179.20 387.94 C 177.25 387.36 175.68 385.93 174.01 384.82 C 168.36 387.03 162.10 385.71 156.18 385.91 C 151.57 383.77 153.15 378.26 153.06 374.21 C 155.07 369.65 158.68 365.55 163.11 363.14 C 165.15 361.88 166.36 359.47 168.72 358.73 C 173.01 357.41 175.97 353.76 179.76 351.52 C 181.37 350.63 182.92 349.48 183.90 347.88 C 184.23 342.29 183.97 336.62 182.83 331.14 C 180.09 323.81 180.24 315.57 176.22 308.70 C 174.37 305.60 174.49 301.68 172.06 298.89 C 169.65 296.16 168.10 292.87 166.58 289.60 C 165.44 292.89 163.07 295.43 161.36 298.41 C 156.75 302.41 154.72 308.17 152.60 313.69 C 151.70 316.52 149.32 318.27 147.39 320.36 C 145.59 323.88 144.21 327.63 141.84 330.83 C 140.41 333.04 138.42 334.83 137.12 337.13 C 134.51 342.02 130.78 346.24 128.55 351.35 C 126.63 357.16 123.70 362.85 119.02 366.88 C 118.21 369.25 116.67 371.52 114.16 372.29 C 110.34 373.47 108.87 377.88 105.26 379.40 C 103.56 380.03 102.25 381.31 100.75 382.29 C 96.53 382.46 92.45 383.56 88.35 384.50 C 85.51 385.52 83.25 388.37 80.00 388.05 C 74.52 388.55 69.62 385.55 64.90 383.21 C 60.61 384.96 55.95 384.51 51.49 383.90 C 50.30 382.40 48.89 381.11 47.44 379.87 C 41.63 382.19 34.39 381.45 29.24 377.75 C 28.23 375.99 27.25 374.10 26.93 372.09 C 28.37 366.99 33.56 365.12 37.08 361.79 C 38.74 361.11 40.72 361.27 42.23 360.29 C 45.22 357.60 49.59 358.61 53.09 357.13 C 57.78 355.41 63.11 355.12 67.06 351.88 C 73.01 350.47 77.54 345.73 80.52 340.61 C 83.04 336.88 87.71 334.84 89.20 330.37 C 90.17 327.22 92.77 324.85 93.36 321.58 C 94.01 318.03 96.01 315.01 97.85 312.00 C 101.54 302.67 107.02 294.13 110.71 284.79 C 115.46 279.04 116.40 271.37 119.78 264.89 C 122.10 261.97 120.65 257.97 120.88 254.55 C 114.14 259.93 103.41 256.27 100.72 248.28 C 97.31 246.93 95.03 244.01 92.03 242.03 C 89.82 240.47 87.30 239.38 85.21 237.66 C 84.34 235.85 83.57 234.00 82.74 232.18 C 81.15 231.71 79.58 231.20 77.98 230.76 C 77.08 227.91 75.77 225.07 76.00 222.01 C 76.32 217.45 75.16 213.00 74.35 208.56 C 71.71 205.14 72.19 200.72 70.94 196.79 C 70.11 192.40 69.84 187.90 70.05 183.44 C 66.73 183.14 68.24 179.43 68.03 177.19 C 70.49 173.49 71.19 168.73 74.51 165.58 C 76.28 163.53 79.39 162.13 79.49 159.07 C 79.61 157.26 80.57 155.69 81.29 154.07 C 80.00 152.44 78.83 150.71 77.56 149.06 C 71.17 148.95 65.83 153.48 59.66 154.61 C 56.08 156.97 51.68 157.16 47.87 159.03 C 44.88 158.86 41.46 157.97 39.81 155.22 C 38.89 153.63 37.72 152.23 36.00 151.48 C 36.33 146.38 34.95 141.38 33.15 136.67 C 32.81 133.40 32.65 129.94 34.08 126.88 C 37.51 127.10 41.01 127.31 43.98 129.25 C 46.26 129.12 48.53 128.98 50.81 128.97 C 51.12 127.20 52.73 125.28 51.56 123.52 C 50.46 121.72 48.93 119.79 46.71 119.44 C 42.68 118.62 38.89 116.87 34.90 115.98 C 32.05 115.34 30.17 118.87 27.28 117.95 C 25.24 116.99 23.88 115.11 22.31 113.56 C 21.58 110.81 21.01 108.03 20.83 105.19 C 19.97 101.93 18.32 98.96 17.06 95.86 C 16.95 90.30 16.91 84.72 17.08 79.16 C 18.15 76.40 18.89 73.26 21.25 71.27 C 23.28 69.12 26.40 68.89 29.07 67.99 C 35.54 65.82 42.36 64.99 48.78 62.67 C 51.33 61.73 54.01 61.31 56.65 60.73 C 59.61 58.67 61.38 55.08 64.83 53.72 C 69.15 51.65 74.17 52.73 78.66 51.53 C 81.47 49.92 84.84 50.90 87.80 49.75 M 119.35 46.44 C 116.00 48.46 111.42 46.80 108.57 49.80 C 101.76 51.45 95.50 54.99 88.42 55.39 C 81.19 58.38 73.08 56.81 65.88 59.79 C 63.18 61.77 61.26 64.63 58.57 66.63 C 54.04 67.60 49.37 68.23 45.11 70.14 C 40.03 72.07 34.63 72.88 29.41 74.32 C 27.25 75.65 25.35 77.34 23.49 79.06 C 23.56 84.99 23.39 90.92 23.54 96.85 C 23.50 98.67 25.71 99.54 25.90 101.31 C 26.48 104.14 27.24 106.94 28.52 109.54 C 31.62 111.52 35.50 109.85 38.88 110.75 C 44.24 112.70 50.07 113.78 54.72 117.27 C 57.10 119.13 57.65 122.32 58.52 125.03 C 58.46 128.59 56.01 131.32 53.94 133.96 C 48.43 133.52 42.70 136.90 37.66 133.20 C 41.22 139.11 42.11 145.98 44.19 152.41 C 48.02 152.60 52.13 152.48 55.43 150.31 C 58.26 148.31 61.87 147.78 64.45 145.39 C 70.55 143.40 77.08 142.43 83.48 143.37 C 84.60 145.84 86.64 148.09 86.50 150.97 C 86.53 153.98 86.60 156.99 86.44 160.00 C 83.93 166.66 76.56 170.14 74.67 177.12 C 73.85 180.22 75.21 183.22 75.91 186.18 C 75.82 193.87 77.84 201.42 80.60 208.56 C 82.80 213.77 80.26 219.72 82.17 224.92 C 83.39 225.01 84.62 225.06 85.85 225.08 C 86.72 227.22 87.65 229.34 88.82 231.34 C 90.35 233.14 92.67 234.01 94.28 235.74 C 96.64 238.20 99.36 240.34 102.64 241.43 C 106.48 245.05 108.32 250.95 113.93 252.38 C 116.55 249.89 119.38 247.06 123.35 247.98 C 121.15 246.01 119.14 243.86 116.92 241.92 C 116.98 240.76 117.06 239.61 117.14 238.46 C 118.29 238.26 119.45 238.08 120.61 237.90 C 122.47 239.94 124.29 242.24 127.11 242.95 C 128.78 243.32 128.27 245.53 128.74 246.77 C 127.08 247.43 125.39 247.98 123.68 248.47 C 127.40 253.16 125.67 259.42 125.96 264.93 C 122.16 276.95 115.88 288.03 110.37 299.36 C 109.78 302.33 107.74 304.62 106.39 307.24 C 104.32 310.46 103.84 314.41 101.62 317.55 C 98.84 321.91 98.74 327.39 95.74 331.63 C 94.25 335.01 91.00 337.11 89.31 340.36 C 85.69 344.98 81.01 348.63 77.15 353.05 C 75.13 355.34 72.21 356.41 69.43 357.44 C 65.87 359.53 62.02 361.19 57.91 361.81 C 54.27 362.34 51.15 364.44 48.04 366.26 C 48.02 366.90 48.00 368.18 47.98 368.81 C 44.48 370.25 40.75 368.63 37.49 370.85 C 37.50 372.25 37.50 373.65 37.51 375.06 C 41.83 376.23 46.21 374.35 50.54 375.18 C 52.47 377.16 55.08 378.01 57.72 378.60 C 61.06 377.93 64.50 376.94 67.91 377.78 C 71.15 378.19 72.83 381.89 76.13 382.15 C 80.43 383.69 83.71 379.69 87.43 378.28 C 91.12 377.57 94.86 377.20 98.59 376.77 C 104.07 373.00 109.38 368.88 114.17 364.22 C 117.88 361.61 117.17 356.40 119.99 353.09 C 123.59 349.05 125.55 343.96 128.60 339.55 C 132.14 333.22 137.36 327.99 140.38 321.35 C 145.27 314.58 149.16 307.21 152.19 299.46 C 154.22 297.08 156.99 295.25 158.29 292.33 C 160.45 288.20 163.03 284.23 166.42 281.00 C 167.03 281.00 168.23 280.98 168.83 280.98 C 169.70 283.14 170.76 285.20 172.08 287.12 C 173.46 292.15 177.40 295.86 179.57 300.51 C 182.27 307.23 184.99 314.07 185.82 321.33 C 186.02 323.45 187.25 325.24 187.93 327.21 C 189.78 334.53 190.33 342.06 190.00 349.61 C 186.89 352.63 184.02 355.94 180.31 358.27 C 176.05 362.62 169.63 363.99 165.63 368.64 C 162.49 370.95 159.32 374.06 158.71 378.09 C 161.38 377.85 164.13 377.09 166.70 378.23 C 169.45 379.80 172.47 376.65 175.15 378.62 C 178.47 380.49 182.48 382.17 186.19 380.33 C 194.24 378.25 202.35 376.01 210.65 374.72 C 214.95 371.86 219.72 368.62 221.25 363.38 C 225.30 358.26 222.66 351.22 223.66 345.24 C 226.22 340.88 230.02 337.10 230.94 331.96 C 231.06 328.03 231.12 324.08 230.89 320.16 C 230.20 318.50 229.19 316.89 229.49 315.01 C 229.78 309.66 228.73 304.36 228.99 299.01 C 229.25 291.17 228.37 283.25 229.74 275.48 C 232.52 274.41 235.16 276.16 237.96 276.01 C 243.29 276.09 248.62 275.86 253.95 276.06 C 255.63 276.54 257.14 277.70 258.98 277.50 C 266.31 277.53 273.65 277.49 280.98 277.48 C 282.32 277.47 283.69 277.53 284.94 278.09 C 290.37 280.42 296.37 280.62 302.05 281.96 C 305.27 282.53 308.55 282.63 311.80 282.88 C 315.03 281.95 318.40 281.72 321.74 282.10 C 324.19 282.65 324.52 285.36 325.96 286.99 C 329.20 291.12 333.58 294.11 336.93 298.13 C 341.43 303.29 346.72 307.75 352.32 311.65 C 357.10 312.55 360.46 316.28 364.91 317.95 C 368.07 319.49 371.67 320.19 374.32 322.66 C 376.10 324.36 378.57 324.47 380.88 324.73 C 384.71 326.21 388.63 327.63 392.01 330.03 C 393.03 330.78 394.69 331.46 394.46 333.04 C 394.42 337.52 394.97 342.11 393.84 346.50 C 391.15 348.68 389.67 351.86 387.25 354.26 C 382.46 357.26 377.60 360.17 372.62 362.80 C 366.07 364.10 359.25 364.01 352.87 366.02 C 350.98 367.19 348.99 368.15 346.92 368.97 C 343.68 370.63 342.76 374.37 341.17 377.36 C 345.65 376.74 349.56 378.62 353.34 380.72 C 355.05 379.45 357.19 379.60 359.18 379.18 C 360.78 378.20 362.36 377.17 363.81 375.96 C 364.26 376.27 365.16 376.89 365.61 377.20 C 364.71 378.86 363.84 380.53 362.82 382.13 C 365.98 385.38 370.89 383.61 374.92 383.97 C 378.13 383.26 382.22 380.82 384.91 384.06 C 387.13 382.55 389.01 380.58 391.34 379.22 C 394.06 377.32 397.70 377.62 400.09 375.10 C 399.32 373.76 398.63 372.39 398.05 370.96 C 400.54 368.37 404.40 369.04 407.41 367.51 C 411.59 364.41 417.11 362.19 419.11 356.98 C 420.41 348.44 423.72 340.39 425.96 332.11 C 425.09 329.77 424.44 327.25 422.63 325.44 C 417.57 319.71 412.62 313.86 408.45 307.45 C 403.25 301.35 396.47 296.82 391.54 290.45 C 388.47 288.93 386.03 286.37 382.70 285.37 C 380.87 282.99 377.89 282.24 375.80 280.21 C 372.10 275.91 365.89 276.33 360.78 275.40 C 357.88 271.99 353.23 271.51 349.32 269.87 C 347.93 268.26 347.06 266.27 346.68 264.19 C 350.59 261.72 355.43 264.10 359.50 262.28 C 360.87 261.69 362.39 261.46 363.72 260.73 C 368.88 257.06 366.22 248.58 372.12 245.52 C 376.07 247.17 375.40 251.68 377.71 254.59 C 377.67 258.68 379.88 262.14 380.75 266.04 C 382.68 272.11 387.23 276.88 392.26 280.60 C 394.55 283.07 397.71 285.15 398.39 288.67 C 405.83 296.32 415.92 301.23 426.33 303.39 C 430.54 303.36 434.29 305.43 438.14 306.85 C 441.16 307.60 444.40 307.22 447.30 308.48 C 450.71 310.13 454.51 310.57 458.03 311.93 C 463.64 312.91 469.47 313.09 474.83 315.17 C 476.79 316.21 478.51 317.65 480.44 318.77 C 484.52 319.46 488.87 318.34 492.84 319.91 C 495.89 321.27 499.22 321.91 502.55 322.13 C 504.52 324.96 507.81 326.64 509.06 330.00 C 511.20 335.26 515.29 340.43 513.81 346.45 C 511.41 349.52 509.01 352.58 506.42 355.49 C 503.79 361.08 498.16 363.96 493.39 367.41 C 489.44 370.25 484.42 370.59 480.00 372.33 C 479.99 373.36 479.99 374.40 480.00 375.45 C 482.61 377.04 485.05 378.96 486.98 381.35 C 489.66 380.74 492.07 379.41 494.58 378.33 C 496.89 377.83 499.45 377.94 501.40 376.38 C 502.97 375.19 504.90 374.90 506.82 374.80 C 506.92 375.59 507.13 377.18 507.24 377.97 C 508.52 377.64 509.81 377.34 511.10 376.98 C 514.64 376.30 515.45 371.92 519.26 371.50 C 519.34 372.33 519.49 373.98 519.56 374.80 C 522.02 374.72 524.12 375.86 526.19 377.03 C 530.32 376.38 534.37 374.32 536.70 370.71 C 538.25 367.97 540.98 365.45 540.58 362.04 C 540.38 357.54 540.75 353.02 540.33 348.54 C 538.90 346.32 538.84 343.74 538.98 341.19 C 537.98 340.72 536.99 340.25 536.00 339.78 C 535.98 346.82 536.43 353.89 534.83 360.80 C 534.30 361.11 533.23 361.73 532.70 362.05 C 531.83 361.41 530.97 360.79 530.11 360.18 C 534.14 356.48 529.79 350.30 533.69 346.75 C 531.19 344.37 532.43 340.98 533.59 338.25 C 530.20 335.16 533.41 330.15 531.19 326.55 C 530.03 324.56 530.62 322.19 530.47 320.02 C 531.98 320.00 533.49 320.00 535.01 319.99 C 534.99 322.83 534.99 325.66 535.00 328.50 C 535.62 328.50 536.87 328.49 537.50 328.49 C 537.42 325.39 537.73 322.26 537.33 319.17 C 535.33 315.04 536.08 310.12 533.71 306.10 C 530.20 304.48 526.42 303.53 522.67 302.66 C 520.45 300.23 516.69 300.24 513.62 299.87 C 514.13 303.53 518.43 304.13 520.53 306.72 C 523.95 307.20 527.21 308.30 530.42 309.56 C 532.20 311.23 533.76 313.12 535.38 314.96 C 534.53 315.94 533.69 316.92 532.86 317.90 C 529.59 316.97 527.73 313.71 524.56 312.62 C 521.92 311.97 518.97 312.18 516.93 310.09 C 513.73 307.07 509.12 306.16 506.17 302.82 C 504.12 300.38 500.52 300.42 498.44 297.98 C 498.48 296.39 498.52 294.80 498.57 293.21 C 493.96 293.16 489.34 291.06 486.84 287.08 C 484.74 283.30 481.48 280.33 479.30 276.61 C 477.41 273.63 475.02 270.72 471.46 269.80 C 466.97 266.53 461.36 266.43 456.06 265.90 C 454.67 263.19 451.16 259.68 454.24 256.86 C 456.76 255.05 458.80 258.61 460.97 259.53 C 462.97 259.59 464.97 259.46 466.99 259.33 C 464.68 253.84 459.27 250.02 457.64 244.22 C 458.51 244.13 460.25 243.95 461.12 243.86 C 461.35 240.68 460.21 237.75 459.18 234.82 C 461.31 234.98 463.41 235.42 465.49 235.90 C 464.75 233.96 463.34 232.44 462.22 230.73 C 461.79 229.20 462.40 227.13 460.82 226.15 C 456.13 223.25 451.50 220.04 447.74 215.99 C 448.37 214.77 449.17 213.67 449.91 212.53 C 450.74 212.50 452.39 212.44 453.22 212.40 C 455.30 215.57 458.53 217.32 461.80 218.98 C 462.18 218.47 462.94 217.45 463.32 216.94 C 462.33 214.57 461.49 212.08 459.85 210.07 C 457.49 207.14 455.30 203.53 451.41 202.55 C 449.59 200.99 448.00 199.19 446.56 197.27 C 443.49 195.29 439.83 194.65 436.28 194.15 C 429.91 191.67 423.58 188.84 416.88 187.56 C 413.20 187.65 409.88 185.87 406.48 184.68 C 401.30 183.93 395.80 185.56 390.90 183.18 C 386.49 182.67 382.59 179.93 378.07 180.47 C 366.06 180.48 354.04 180.58 342.03 180.43 C 335.68 179.34 329.11 180.93 322.86 179.14 C 320.09 178.82 317.23 179.30 314.55 178.40 C 309.32 177.16 303.76 178.27 298.69 176.32 C 294.49 175.65 290.11 175.60 286.16 173.84 C 283.99 173.24 282.75 171.12 280.63 170.41 C 274.41 167.77 267.91 164.80 263.71 159.27 C 261.99 156.42 258.37 156.04 255.71 154.40 C 251.70 152.22 246.20 152.50 243.24 148.72 C 242.88 144.35 241.50 140.16 241.23 135.78 C 240.84 135.28 240.07 134.27 239.69 133.76 C 240.14 132.79 240.62 131.83 241.11 130.88 C 239.06 128.20 237.65 125.10 235.76 122.31 C 230.17 118.62 226.28 112.69 220.08 109.93 C 220.26 106.88 219.53 103.79 217.71 101.32 C 214.94 99.97 212.18 98.41 209.06 98.10 C 206.65 98.07 205.13 96.01 203.19 94.92 C 198.85 92.52 197.74 86.99 193.67 84.30 C 189.19 81.41 183.58 82.79 178.71 81.17 C 174.19 79.85 170.38 83.46 165.84 82.53 C 165.91 81.73 166.05 80.12 166.12 79.32 C 168.29 76.12 171.01 73.32 173.22 70.13 C 168.68 68.60 164.65 65.97 161.50 62.34 C 156.17 58.87 151.74 54.23 146.49 50.68 C 141.90 47.69 136.30 49.57 131.20 48.91 C 127.43 47.59 123.44 44.81 119.35 46.44 M 526.60 190.64 C 527.32 196.93 528.83 203.19 527.79 209.57 C 525.17 213.65 522.30 217.93 517.61 219.80 C 512.88 222.68 507.20 221.95 501.93 222.02 C 496.53 222.12 491.40 220.26 486.25 218.97 C 483.23 217.53 479.68 217.20 477.07 214.97 C 473.03 211.61 468.60 208.78 464.45 205.58 C 466.39 207.92 468.76 209.90 471.12 211.81 C 475.43 214.06 478.78 217.78 483.27 219.74 C 487.54 222.13 494.27 220.09 496.50 225.62 C 492.62 228.62 488.28 225.48 484.06 226.01 C 486.46 227.90 489.57 228.42 492.29 229.70 C 495.27 231.18 498.58 232.08 501.94 232.02 C 508.42 231.90 515.03 232.61 521.31 230.60 C 523.91 228.34 528.09 228.03 529.62 224.55 C 530.67 222.06 533.17 220.61 534.15 218.07 C 536.43 213.74 536.03 208.72 536.00 203.99 L 534.99 203.99 C 534.73 208.06 535.99 212.59 533.39 216.13 C 530.84 219.34 527.53 222.05 523.88 223.94 C 518.94 225.81 514.30 228.36 509.77 231.03 C 506.39 232.01 504.79 228.67 502.53 226.93 C 503.03 225.89 503.61 224.91 504.29 223.98 C 507.20 223.86 510.06 225.77 512.79 223.85 C 517.11 220.94 522.28 219.59 526.57 216.59 C 528.76 215.47 528.69 212.65 529.64 210.66 C 530.90 203.87 529.72 196.76 526.60 190.64 M 461.34 203.31 C 461.10 204.48 461.82 206.09 463.07 206.37 C 464.81 205.73 462.66 202.74 461.34 203.31 M 468.00 215.79 C 467.64 219.89 468.93 224.35 466.98 228.17 C 468.30 231.00 470.43 233.68 470.56 236.90 C 469.11 239.27 467.02 241.75 468.29 244.70 C 469.45 247.12 468.66 249.60 467.77 251.95 C 469.09 253.96 470.69 255.75 472.51 257.33 C 475.26 261.82 478.41 266.23 481.93 270.12 C 484.06 277.06 489.60 281.90 494.54 286.88 C 495.12 286.96 496.27 287.12 496.85 287.20 C 492.68 280.58 488.69 273.89 484.89 267.06 C 482.91 263.00 482.23 258.49 480.46 254.36 C 478.20 246.73 477.73 238.75 475.98 231.03 C 475.48 229.26 477.23 228.36 478.26 227.29 C 479.69 225.68 483.42 227.59 483.97 225.05 C 477.91 223.47 473.65 218.31 468.00 215.79 M 370.00 262.23 C 370.00 262.86 369.98 264.12 369.98 264.75 C 371.34 265.49 372.70 266.24 374.10 266.94 C 373.69 264.89 373.23 262.86 372.81 260.81 C 371.87 261.28 370.94 261.76 370.00 262.23 Z" />
<path fill="#000000" stroke="#000000" stroke-width="0.09375" opacity="1.00" d=" M 126.61 54.49 C 130.30 53.37 134.04 52.42 137.87 51.88 C 138.38 52.39 139.41 53.41 139.93 53.91 C 139.17 55.02 138.41 56.12 137.65 57.22 C 132.19 57.09 128.24 61.02 123.69 63.32 C 122.76 62.28 121.89 61.20 121.06 60.08 C 123.12 58.43 124.78 56.38 126.61 54.49 Z" />
<path fill="#000000" stroke="#000000" stroke-width="0.09375" opacity="1.00" d=" M 151.54 65.49 C 153.13 64.38 154.34 62.58 156.20 61.96 C 158.30 61.31 159.22 63.60 160.19 64.98 C 158.65 68.27 153.98 67.18 151.54 65.49 Z" />
<path fill="#000000" stroke="#000000" stroke-width="0.09375" opacity="1.00" d=" M 128.27 67.86 C 129.78 66.06 131.53 64.49 133.17 62.82 C 135.50 62.51 136.88 64.23 138.04 66.00 C 135.57 67.67 132.64 68.77 130.98 71.41 C 129.84 70.40 128.26 69.60 128.27 67.86 Z" />
<path fill="#000000" stroke="#000000" stroke-width="0.09375" opacity="1.00" d=" M 94.99 70.79 C 97.80 69.60 100.51 68.15 103.23 66.77 C 105.16 66.78 107.08 66.99 109.00 67.06 C 109.00 67.71 109.00 69.01 109.00 69.66 C 104.88 70.78 101.33 73.40 97.55 75.34 C 96.39 74.00 95.55 72.46 94.99 70.79 Z" />
<path fill="#000000" stroke="#000000" stroke-width="0.09375" opacity="1.00" d=" M 63.61 73.72 C 66.95 71.68 70.34 69.71 74.08 68.49 C 76.45 67.74 78.82 70.83 76.89 72.72 C 73.24 74.67 68.73 74.99 66.01 78.44 C 65.11 76.92 64.21 75.39 63.61 73.72 Z" />
<path fill="#000000" stroke="#000000" stroke-width="0.09375" opacity="1.00" d=" M 79.53 74.58 C 80.90 73.07 82.99 73.17 84.84 72.87 C 85.38 73.40 86.46 74.47 87.00 75.00 C 82.94 80.66 76.52 85.83 69.16 85.05 C 68.28 83.34 65.81 81.32 67.56 79.39 C 69.12 76.50 71.64 81.38 73.70 79.70 C 76.21 78.68 77.80 76.53 79.53 74.58 Z" />
<path fill="#000000" stroke="#000000" stroke-width="0.09375" opacity="1.00" d=" M 101.98 77.38 C 105.11 75.57 108.62 74.98 112.18 75.79 C 109.41 78.60 105.91 80.44 102.06 81.27 C 102.02 79.98 102.00 78.68 101.98 77.38 Z" />
<path fill="#000000" stroke="#000000" stroke-width="0.09375" opacity="1.00" d=" M 37.53 82.98 C 41.14 77.92 48.60 76.48 54.03 79.20 C 54.36 82.37 50.44 82.75 48.11 82.51 C 44.97 81.77 43.88 86.01 40.88 85.59 C 39.22 86.02 38.64 83.78 37.53 82.98 Z" />
<path fill="#000000" stroke="#000000" stroke-width="0.09375" opacity="1.00" d=" M 109.99 81.26 C 113.04 80.37 116.40 78.99 118.98 81.69 C 116.41 83.83 113.26 84.38 110.01 84.04 C 110.01 83.34 110.00 81.95 109.99 81.26 Z" />
<path fill="#000000" stroke="#000000" stroke-width="0.09375" opacity="1.00" d=" M 142.32 84.37 C 144.21 84.25 146.11 84.16 147.99 83.95 C 148.00 84.64 148.00 86.04 148.00 86.74 C 144.72 86.44 143.62 89.82 141.27 91.36 C 139.95 92.83 137.89 92.42 136.14 92.61 C 135.94 91.69 135.54 89.84 135.35 88.91 C 137.72 87.47 140.01 85.90 142.32 84.37 Z" />
<path fill="#000000" stroke="#000000" stroke-width="0.09375" opacity="1.00" d=" M 42.50 89.93 C 46.67 88.12 51.57 85.88 56.02 88.10 C 56.01 88.75 56.00 90.05 56.00 90.70 C 51.74 92.53 47.22 94.19 42.52 94.10 C 42.51 92.71 42.50 91.32 42.50 89.93 Z" />
<path fill="#000000" stroke="#000000" stroke-width="0.09375" opacity="1.00" d=" M 143.62 94.36 C 144.41 91.47 147.91 88.10 150.82 90.20 C 153.35 93.02 148.98 94.69 147.15 96.15 C 145.98 95.54 144.80 94.94 143.62 94.36 Z" />
<path fill="#000000" stroke="#000000" stroke-width="0.09375" opacity="1.00" d=" M 155.99 91.40 C 157.93 90.25 159.95 89.25 162.27 89.33 C 161.49 90.86 160.70 92.40 160.08 94.01 C 158.72 94.00 157.36 94.00 156.00 94.00 C 156.00 93.35 155.99 92.05 155.99 91.40 Z" />
<path fill="#000000" stroke="#000000" stroke-width="0.09375" opacity="1.00" d=" M 167.18 93.86 C 167.44 92.09 168.59 90.73 169.60 89.33 C 170.47 89.39 172.21 89.52 173.08 89.58 C 172.49 91.02 172.04 92.51 171.71 94.04 C 170.20 94.00 168.69 93.94 167.18 93.86 Z" />
<path fill="#000000" stroke="#000000" stroke-width="0.09375" opacity="1.00" d=" M 104.62 96.00 C 105.53 94.73 106.22 93.31 106.91 91.91 C 108.62 93.21 110.24 94.61 111.94 95.93 C 110.95 96.84 109.99 97.78 109.06 98.75 C 107.64 97.73 106.16 96.82 104.62 96.00 Z" />
<path fill="#000000" stroke="#000000" stroke-width="0.09375" opacity="1.00" d=" M 48.76 98.20 C 50.59 96.90 52.23 94.22 54.82 95.08 C 56.75 96.17 58.88 96.66 61.10 96.68 C 60.99 97.21 60.79 98.28 60.69 98.81 C 59.32 98.50 57.96 98.12 56.60 97.78 C 54.08 98.69 51.38 98.63 48.76 98.20 Z" />
<path fill="#000000" stroke="#000000" stroke-width="0.09375" opacity="1.00" d=" M 123.10 99.36 C 123.85 98.94 125.37 98.08 126.12 97.66 C 129.92 99.71 132.58 103.06 135.49 106.14 C 134.36 107.10 133.21 108.04 132.04 108.95 C 128.44 106.36 124.60 103.78 123.10 99.36 Z" />
<path fill="#000000" stroke="#000000" stroke-width="0.09375" opacity="1.00" d=" M 172.97 98.50 C 175.51 98.51 178.05 98.51 180.59 98.46 C 181.02 99.17 181.89 100.59 182.33 101.30 C 179.08 101.16 176.17 102.60 173.07 103.31 C 173.03 101.70 172.99 100.10 172.97 98.50 Z" />
<path fill="#000000" stroke="#000000" stroke-width="0.09375" opacity="1.00" d=" M 44.62 99.69 C 47.64 100.38 50.47 101.71 53.62 101.77 C 55.96 103.47 58.15 105.35 60.53 106.99 C 54.08 107.58 48.33 103.68 41.91 103.59 C 42.81 102.29 43.72 100.99 44.62 99.69 Z" />
<path fill="#000000" stroke="#000000" stroke-width="0.09375" opacity="1.00" d=" M 200.50 102.91 C 201.65 101.73 202.87 100.62 204.10 99.51 C 205.64 100.90 207.28 102.54 206.38 104.81 C 203.09 108.29 197.64 110.15 193.15 108.01 C 192.94 106.75 192.71 105.48 192.48 104.22 C 195.11 103.56 197.76 102.83 200.50 102.91 Z" />
<path fill="#000000" stroke="#000000" stroke-width="0.09375" opacity="1.00" d=" M 136.90 104.81 C 138.11 103.96 139.24 102.61 140.90 102.96 C 143.32 103.20 144.76 105.54 146.47 107.00 C 145.68 108.08 144.85 109.13 144.03 110.18 C 140.96 109.38 138.39 107.68 136.90 104.81 Z" />
<path fill="#000000" stroke="#000000" stroke-width="0.09375" opacity="1.00" d=" M 36.01 105.50 C 36.76 105.50 38.25 105.50 38.99 105.50 C 38.99 106.50 38.99 107.50 38.99 108.50 C 38.24 108.50 36.75 108.50 36.00 108.50 C 36.01 107.50 36.01 106.50 36.01 105.50 Z" />
<path fill="#000000" stroke="#000000" stroke-width="0.09375" opacity="1.00" d=" M 76.66 110.82 C 77.39 109.83 78.14 108.86 78.90 107.90 C 83.85 111.16 86.64 116.47 88.85 121.78 C 87.31 122.49 85.76 123.16 84.25 123.94 C 80.14 120.59 79.88 114.85 76.66 110.82 Z" />
<path fill="#000000" stroke="#000000" stroke-width="0.09375" opacity="1.00" d=" M 169.51 111.54 C 172.65 109.54 179.90 108.39 179.69 113.92 C 176.09 114.11 172.06 114.69 169.51 111.54 Z" />
<path fill="#000000" stroke="#000000" stroke-width="0.09375" opacity="1.00" d=" M 67.09 117.95 C 68.89 115.62 71.32 116.26 73.66 117.19 C 74.59 120.34 77.12 122.62 78.27 125.68 C 77.79 126.36 76.83 127.74 76.35 128.42 C 72.14 126.21 69.65 121.79 67.09 117.95 Z" />
<path fill="#000000" stroke="#000000" stroke-width="0.09375" opacity="1.00" d=" M 93.98 115.51 C 95.65 115.50 97.33 115.50 99.00 115.51 C 98.99 117.67 98.99 119.84 99.00 122.01 C 97.96 122.73 96.96 123.49 95.95 124.26 C 93.29 122.05 94.05 118.56 93.98 115.51 Z" />
<path fill="#000000" stroke="#000000" stroke-width="0.09375" opacity="1.00" d=" M 198.80 118.21 C 200.41 114.38 204.66 115.51 207.95 115.74 C 211.83 116.20 215.75 115.97 219.66 115.98 C 220.69 117.76 221.90 119.43 223.28 120.96 C 217.87 121.81 212.44 120.87 207.00 120.99 C 204.09 120.91 201.15 119.94 198.80 118.21 Z" />
<path fill="#000000" stroke="#000000" stroke-width="0.09375" opacity="1.00" d=" M 104.98 118.08 C 106.28 117.65 107.59 117.23 108.91 116.82 C 109.34 119.71 110.19 122.89 108.67 125.62 C 105.23 131.70 101.69 137.78 99.23 144.34 C 98.88 145.86 99.00 147.45 98.92 149.00 C 97.27 149.00 95.62 149.00 93.98 149.00 C 93.32 143.00 95.58 137.03 99.62 132.62 C 101.10 127.63 104.75 123.44 104.98 118.08 Z" />
<path fill="#000000" stroke="#000000" stroke-width="0.09375" opacity="1.00" d=" M 139.00 118.00 C 139.75 118.00 141.25 118.00 142.00 118.00 C 142.00 118.75 142.00 120.25 142.00 121.00 C 141.25 121.00 139.75 121.00 139.00 121.00 C 139.00 120.25 139.00 118.75 139.00 118.00 Z" />
<path fill="#000000" stroke="#000000" stroke-width="0.09375" opacity="1.00" d=" M 156.27 117.60 C 160.13 118.57 161.58 122.78 162.52 126.21 C 164.17 127.84 165.87 129.43 167.51 131.09 C 166.42 132.08 165.30 133.03 164.13 133.92 C 160.97 131.30 157.20 129.25 155.14 125.55 C 154.73 122.85 154.77 119.98 156.27 117.60 Z" />
<path fill="#000000" stroke="#000000" stroke-width="0.09375" opacity="1.00" d=" M 58.53 122.00 C 59.82 119.85 62.23 118.38 64.53 120.05 C 65.92 121.98 67.09 124.05 68.31 126.08 C 67.62 127.25 66.91 128.41 66.18 129.55 C 63.62 127.04 60.97 124.63 58.53 122.00 Z" />
<path fill="#000000" stroke="#000000" stroke-width="0.09375" opacity="1.00" d=" M 206.06 128.44 C 207.19 127.17 208.39 125.96 209.63 124.79 C 214.47 126.93 219.30 129.91 224.82 129.00 C 226.05 130.46 227.32 131.89 228.55 133.36 C 224.75 133.45 220.90 133.80 217.13 133.27 C 213.31 131.97 209.46 130.66 206.06 128.44 Z" />
<path fill="#000000" stroke="#000000" stroke-width="0.09375" opacity="1.00" d=" M 139.97 133.94 C 141.11 132.99 142.43 132.28 143.72 131.55 C 144.09 133.36 144.60 135.18 144.57 137.05 C 144.01 138.92 141.91 139.71 140.26 140.40 C 138.99 138.48 138.69 135.91 139.97 133.94 Z" />
<path fill="#000000" stroke="#000000" stroke-width="0.09375" opacity="1.00" d=" M 208.98 137.72 C 211.81 134.04 215.90 137.57 218.11 139.97 C 219.59 141.52 218.81 143.38 217.98 145.02 C 216.76 145.01 215.54 145.00 214.32 145.00 C 212.31 142.75 210.62 140.25 208.98 137.72 Z" />
<path fill="#000000" stroke="#000000" stroke-width="0.09375" opacity="1.00" d=" M 153.28 138.96 C 154.21 138.17 155.15 137.38 156.09 136.59 C 161.21 140.35 162.76 146.77 164.55 152.51 C 166.12 157.89 164.16 163.30 162.27 168.31 C 161.85 172.66 160.22 176.67 160.08 181.07 C 157.93 184.95 160.19 188.93 160.40 192.96 C 160.72 196.76 162.22 200.34 163.10 204.03 C 165.36 207.13 167.40 210.39 169.21 213.78 C 168.41 214.58 167.61 215.38 166.81 216.19 C 163.65 214.45 160.12 212.44 159.12 208.74 C 158.91 205.74 158.21 202.79 156.94 200.06 C 155.02 196.16 155.52 191.68 154.36 187.59 C 153.96 186.20 153.80 184.71 154.15 183.30 C 155.38 179.51 154.94 175.46 155.73 171.58 C 156.64 168.98 157.86 166.48 158.68 163.85 C 159.20 160.90 158.83 157.85 159.66 154.94 C 159.05 152.16 158.57 149.33 157.60 146.65 C 155.32 144.63 154.88 141.45 153.28 138.96 Z" />
<path fill="#000000" stroke="#000000" stroke-width="0.09375" opacity="1.00" d=" M 179.34 139.09 C 180.27 139.06 182.12 138.99 183.04 138.96 C 184.69 141.04 186.34 143.20 188.77 144.44 C 187.44 144.94 186.14 145.47 184.87 146.10 C 181.42 145.45 178.72 142.81 179.34 139.09 Z" />
<path fill="#000000" stroke="#000000" stroke-width="0.09375" opacity="1.00" d=" M 51.10 140.50 C 54.36 140.68 49.58 143.52 51.10 140.50 Z" />
<path fill="#000000" stroke="#000000" stroke-width="0.09375" opacity="1.00" d=" M 46.47 147.31 C 47.49 145.62 49.01 144.65 51.03 144.79 C 51.01 145.49 50.96 146.89 50.94 147.59 C 49.45 147.52 47.96 147.42 46.47 147.31 Z" />
<path fill="#000000" stroke="#000000" stroke-width="0.09375" opacity="1.00" d=" M 577.04 145.42 C 578.18 146.90 579.23 148.48 580.02 150.18 C 579.27 150.30 577.77 150.54 577.02 150.66 C 576.99 148.91 576.97 147.17 577.04 145.42 Z" />
<path fill="#000000" stroke="#000000" stroke-width="0.09375" opacity="1.00" d=" M 198.96 149.89 C 200.42 148.90 201.87 147.91 203.35 146.95 C 204.43 148.33 205.09 149.92 205.22 151.68 C 208.02 153.24 210.13 155.82 211.52 158.67 C 209.55 159.92 207.15 160.51 205.08 159.12 C 202.95 156.10 200.56 153.25 198.96 149.89 Z" />
<path fill="#000000" stroke="#000000" stroke-width="0.09375" opacity="1.00" d=" M 226.99 147.27 C 228.72 147.70 230.87 147.62 231.90 149.36 C 233.02 152.18 233.57 155.58 231.84 158.29 C 230.61 157.88 229.39 157.43 228.19 156.97 C 227.00 153.86 226.81 150.56 226.99 147.27 Z" />
<path fill="#000000" stroke="#000000" stroke-width="0.09375" opacity="1.00" d=" M 566.85 150.31 C 570.86 152.89 573.69 156.80 577.20 159.94 C 574.10 161.18 571.13 159.34 568.12 158.77 C 567.99 155.91 567.04 153.17 566.85 150.31 Z" />
<path fill="#000000" stroke="#000000" stroke-width="0.09375" opacity="1.00" d=" M 588.43 150.67 C 589.96 150.57 591.50 150.49 593.05 150.44 C 594.45 152.55 595.34 154.88 595.08 157.45 C 592.26 155.91 590.07 153.37 588.43 150.67 Z" />
<path fill="#000000" stroke="#000000" stroke-width="0.09375" opacity="1.00" d=" M 581.17 152.13 C 582.46 152.36 582.68 153.10 581.83 154.36 C 580.53 154.11 580.31 153.36 581.17 152.13 Z" />
<path fill="#000000" stroke="#000000" stroke-width="0.09375" opacity="1.00" d=" M 211.73 152.40 C 213.24 152.63 214.75 152.87 216.27 153.11 C 216.39 154.86 216.88 156.54 218.01 157.92 C 217.20 159.83 216.68 161.85 216.00 163.82 C 214.31 163.48 212.13 162.84 212.00 160.78 C 211.68 157.99 210.59 155.13 211.73 152.40 Z" />
<path fill="#000000" stroke="#000000" stroke-width="0.09375" opacity="1.00" d=" M 522.04 152.97 C 522.83 152.99 524.42 153.04 525.22 153.07 C 525.05 156.24 523.48 159.06 522.77 162.12 C 521.15 159.27 520.24 155.96 522.04 152.97 Z" />
<path fill="#000000" stroke="#000000" stroke-width="0.09375" opacity="1.00" d=" M 191.00 156.43 C 192.01 155.70 193.01 154.96 194.00 154.20 C 194.99 154.96 195.99 155.70 197.00 156.43 C 197.00 157.02 197.00 158.19 197.00 158.77 C 196.00 159.25 195.00 159.74 194.00 160.22 C 193.00 159.74 192.00 159.26 191.00 158.78 C 191.00 158.19 191.00 157.02 191.00 156.43 Z" />
<path fill="#000000" stroke="#000000" stroke-width="0.09375" opacity="1.00" d=" M 172.79 160.24 C 173.86 159.71 174.93 159.18 176.01 158.67 C 181.31 162.09 179.53 169.37 178.77 174.62 C 173.92 184.61 176.58 196.07 176.55 206.71 C 175.31 207.19 174.08 207.68 172.86 208.19 C 171.51 206.40 170.62 204.34 170.97 202.06 C 171.37 194.41 170.08 186.60 172.06 179.12 C 172.44 175.28 174.71 171.91 174.53 167.97 C 174.88 165.24 173.91 162.66 172.79 160.24 Z" />
<path fill="#000000" stroke="#000000" stroke-width="0.09375" opacity="1.00" d=" M 584.71 160.09 C 585.45 160.06 586.94 160.00 587.69 159.98 C 589.85 164.72 595.38 169.63 592.89 175.10 C 590.77 173.53 590.40 170.35 588.89 168.18 C 587.53 165.46 584.98 163.27 584.71 160.09 Z" />
<path fill="#000000" stroke="#000000" stroke-width="0.09375" opacity="1.00" d=" M 115.98 162.95 C 117.41 162.99 118.84 163.03 120.27 163.08 C 120.30 165.36 118.61 166.79 117.22 168.36 C 115.82 169.93 116.61 172.70 114.55 173.79 C 112.50 174.54 110.45 173.77 109.00 172.27 C 110.93 168.87 113.21 165.72 115.98 162.95 Z" />
<path fill="#000000" stroke="#000000" stroke-width="0.09375" opacity="1.00" d=" M 123.91 162.96 C 125.46 162.99 127.01 163.01 128.56 163.04 C 128.38 165.20 128.88 167.57 127.82 169.55 C 124.30 174.56 122.44 180.44 120.14 186.05 C 119.76 188.57 117.57 190.07 115.66 191.44 C 115.22 190.81 114.34 189.55 113.91 188.92 C 115.33 183.72 117.03 178.51 119.70 173.80 C 122.53 170.82 122.81 166.68 123.91 162.96 Z" />
<path fill="#000000" stroke="#000000" stroke-width="0.09375" opacity="1.00" d=" M 241.16 166.76 C 242.07 165.62 243.01 164.51 243.99 163.42 C 248.62 167.57 250.27 173.71 253.23 178.95 C 251.97 180.21 251.02 181.70 250.28 183.31 C 249.20 182.82 248.13 182.33 247.06 181.83 C 247.74 176.09 244.00 171.35 241.16 166.76 Z" />
<path fill="#000000" stroke="#000000" stroke-width="0.09375" opacity="1.00" d=" M 190.09 168.95 C 191.50 167.96 193.51 165.73 195.14 167.63 C 199.96 171.35 196.14 177.52 195.41 182.24 C 195.47 184.88 191.41 185.43 190.69 182.97 C 190.18 179.51 191.42 176.00 192.74 172.82 C 191.86 171.53 190.96 170.25 190.09 168.95 Z" />
<path fill="#000000" stroke="#000000" stroke-width="0.09375" opacity="1.00" d=" M 83.03 175.10 C 82.81 172.79 84.96 171.37 86.13 169.66 C 89.08 174.63 87.77 180.49 87.98 185.97 C 88.11 187.78 85.37 190.34 84.05 188.08 C 80.03 184.70 82.90 179.39 83.03 175.10 Z" />
<path fill="#000000" stroke="#000000" stroke-width="0.09375" opacity="1.00" d=" M 182.23 174.26 C 182.38 172.35 184.68 172.21 186.07 171.64 C 186.35 175.51 184.75 179.15 184.89 183.01 C 183.53 183.00 182.16 182.98 180.79 182.96 C 181.19 180.05 181.95 177.20 182.23 174.26 Z" />
<path fill="#000000" stroke="#000000" stroke-width="0.09375" opacity="1.00" d=" M 219.06 180.66 C 218.31 177.31 220.15 174.29 221.65 171.46 C 222.78 172.43 223.88 173.44 225.01 174.43 C 225.38 177.74 225.06 181.05 222.05 183.07 C 221.01 182.32 220.01 181.51 219.06 180.66 Z" />
<path fill="#000000" stroke="#000000" stroke-width="0.09375" opacity="1.00" d=" M 229.50 173.51 C 230.38 173.51 232.13 173.51 233.00 173.50 C 232.99 176.99 232.99 180.48 233.03 183.97 C 231.86 184.77 230.73 185.61 229.58 186.43 C 229.44 182.12 229.51 177.82 229.50 173.51 Z" />
<path fill="#000000" stroke="#000000" stroke-width="0.09375" opacity="1.00" d=" M 94.26 175.98 C 95.96 176.00 97.65 176.02 99.35 176.07 C 97.90 179.10 96.90 182.35 94.70 184.98 C 91.97 182.39 93.38 179.03 94.26 175.98 Z" />
<path fill="#000000" stroke="#000000" stroke-width="0.09375" opacity="1.00" d=" M 126.23 177.49 C 127.62 176.84 128.97 175.38 130.60 176.28 C 131.38 179.79 130.30 183.36 130.43 186.91 C 130.88 189.74 126.42 190.60 125.66 187.93 C 125.15 184.45 125.61 180.92 126.23 177.49 Z" />
<path fill="#000000" stroke="#000000" stroke-width="0.09375" opacity="1.00" d=" M 144.52 182.73 C 146.06 182.38 148.09 181.08 148.88 183.22 C 149.51 188.00 147.82 193.21 150.67 197.50 C 151.11 200.94 151.73 204.35 152.30 207.77 C 154.80 214.32 158.71 220.16 162.24 226.18 C 161.54 226.97 160.84 227.76 160.15 228.56 C 158.86 228.33 157.57 228.12 156.28 227.92 C 156.03 225.27 154.45 223.11 153.09 220.93 C 150.23 215.17 146.94 209.52 145.84 203.09 C 144.04 196.45 144.54 189.52 144.52 182.73 Z" />
<path fill="#000000" stroke="#000000" stroke-width="0.09375" opacity="1.00" d=" M 288.49 190.93 C 289.61 189.57 290.74 187.31 292.88 188.02 C 296.14 189.05 299.36 190.29 302.85 190.13 C 306.17 191.69 310.00 191.11 313.23 192.90 C 321.13 193.19 329.06 192.87 336.97 193.01 C 337.54 193.40 338.68 194.19 339.26 194.59 C 341.93 193.30 344.97 193.03 347.91 192.98 C 354.13 193.00 360.36 193.00 366.59 193.00 C 367.12 193.51 368.17 194.53 368.70 195.04 C 368.51 195.79 368.13 197.29 367.94 198.04 C 365.99 198.40 363.97 198.48 362.11 199.23 C 358.30 200.77 354.09 199.61 350.10 200.06 C 343.05 201.68 335.71 201.18 328.52 201.69 C 322.08 202.48 315.58 201.75 309.18 200.98 C 304.99 199.93 300.38 199.98 296.71 197.40 C 293.47 195.95 290.65 193.75 288.49 190.93 Z" />
<path fill="#000000" stroke="#000000" stroke-width="0.09375" opacity="1.00" d=" M 388.68 191.16 C 389.87 190.30 391.07 189.44 392.28 188.59 C 392.39 189.60 392.49 190.61 392.59 191.63 C 391.28 191.48 389.98 191.33 388.68 191.16 Z" />
<path fill="#000000" stroke="#000000" stroke-width="0.09375" opacity="1.00" d=" M 247.40 201.37 C 248.70 197.89 249.99 194.25 252.73 191.58 C 253.78 192.33 254.83 193.08 255.89 193.83 C 254.16 202.56 247.31 208.93 243.87 216.85 C 242.93 222.56 242.81 228.66 239.67 233.73 C 238.11 237.21 235.87 241.11 231.57 241.31 C 230.99 240.09 230.39 238.87 229.78 237.67 C 231.47 236.06 233.31 234.56 234.71 232.69 C 238.13 226.46 237.89 219.06 240.31 212.50 C 242.57 208.72 244.59 204.80 247.40 201.37 Z" />
<path fill="#000000" stroke="#000000" stroke-width="0.09375" opacity="1.00" d=" M 395.33 191.31 C 402.29 192.52 404.27 200.50 408.92 204.84 C 407.92 205.70 406.92 206.55 405.93 207.40 C 401.66 203.79 398.43 199.19 394.36 195.39 C 394.60 194.37 395.09 192.33 395.33 191.31 Z" />
<path fill="#000000" stroke="#000000" stroke-width="0.09375" opacity="1.00" d=" M 97.35 196.96 C 99.01 196.99 100.66 197.03 102.32 197.09 C 101.66 199.51 100.55 201.79 100.10 204.28 C 98.28 204.04 96.61 203.36 95.06 202.39 C 96.07 200.68 96.98 198.93 97.35 196.96 Z" />
<path fill="#000000" stroke="#000000" stroke-width="0.09375" opacity="1.00" d=" M 104.76 203.66 C 105.90 202.62 107.06 201.60 108.23 200.60 C 112.05 201.80 111.32 206.27 112.90 209.21 C 114.56 212.95 116.23 217.62 113.73 221.39 C 112.42 220.75 110.56 220.53 110.22 218.84 C 108.42 213.78 107.68 208.28 104.76 203.66 Z" />
<path fill="#000000" stroke="#000000" stroke-width="0.09375" opacity="1.00" d=" M 83.82 203.01 C 84.66 203.01 86.34 203.03 87.18 203.03 C 87.16 205.18 86.64 207.24 85.39 209.00 C 84.43 207.12 83.83 205.13 83.82 203.01 Z" />
<path fill="#000000" stroke="#000000" stroke-width="0.09375" opacity="1.00" d=" M 230.15 209.02 C 232.06 207.82 233.87 204.68 236.39 206.40 C 240.90 210.86 234.77 215.76 232.77 219.81 C 229.51 224.31 229.99 230.12 227.75 235.01 C 225.76 235.48 222.90 236.05 223.02 233.08 C 225.23 228.09 225.70 222.63 227.29 217.46 C 228.00 214.56 227.38 210.96 230.15 209.02 Z" />
<path fill="#000000" stroke="#000000" stroke-width="0.09375" opacity="1.00" d=" M 254.94 209.77 C 256.10 209.05 257.19 207.52 258.75 208.04 C 260.63 209.06 262.07 210.74 264.08 211.56 C 264.68 214.84 264.01 218.36 265.58 221.42 C 267.25 225.20 267.56 229.40 269.12 233.22 C 267.75 234.34 266.17 235.12 264.40 235.30 C 263.25 232.83 262.51 230.23 262.27 227.53 C 260.02 221.52 259.87 214.49 254.94 209.77 Z" />
<path fill="#000000" stroke="#000000" stroke-width="0.09375" opacity="1.00" d=" M 264.29 211.28 C 265.75 210.65 267.24 210.09 268.77 209.66 C 270.84 214.00 272.50 218.85 275.80 222.26 C 277.82 228.27 284.31 232.73 283.05 239.70 C 281.21 240.93 279.30 242.08 277.20 242.79 C 276.62 242.22 275.48 241.08 274.90 240.51 C 275.79 238.55 277.37 234.88 274.00 234.57 C 275.28 228.95 270.54 225.18 268.38 220.57 C 266.96 217.50 264.90 214.67 264.29 211.28 Z" />
<path fill="#000000" stroke="#000000" stroke-width="0.09375" opacity="1.00" d=" M 128.29 219.95 C 130.34 217.50 129.84 214.23 130.82 211.38 C 133.48 215.24 133.81 220.27 131.61 224.42 C 130.63 222.84 129.64 221.24 128.29 219.95 Z" />
<path fill="#000000" stroke="#000000" stroke-width="0.09375" opacity="1.00" d=" M 137.69 215.00 C 138.22 215.00 139.30 214.99 139.84 214.98 C 140.13 216.33 139.65 218.02 140.69 219.11 C 142.93 221.03 141.76 224.15 141.92 226.69 C 138.51 227.09 137.61 223.15 135.84 221.05 C 136.94 219.19 137.73 217.19 137.69 215.00 Z" />
<path fill="#000000" stroke="#000000" stroke-width="0.09375" opacity="1.00" d=" M 114.04 224.33 C 114.54 222.57 116.23 221.82 117.66 220.96 C 118.24 221.28 119.39 221.92 119.96 222.25 C 119.88 224.80 119.94 227.39 121.13 229.71 C 120.01 230.48 118.88 231.25 117.75 232.00 C 116.38 229.55 113.39 227.44 114.04 224.33 Z" />
<path fill="#000000" stroke="#000000" stroke-width="0.09375" opacity="1.00" d=" M 397.22 227.96 C 400.21 227.89 403.01 229.32 406.04 229.15 C 406.21 232.20 405.84 235.21 405.01 238.15 C 405.14 242.91 405.88 247.66 406.24 252.41 C 408.03 254.09 407.98 256.46 408.24 258.72 C 409.78 263.04 411.93 267.13 413.82 271.31 C 414.85 273.19 412.84 274.62 411.91 276.01 C 408.50 274.56 409.31 270.26 406.44 268.34 C 405.08 264.15 402.08 260.47 401.88 255.96 C 401.10 249.75 400.73 243.55 399.78 237.37 C 397.72 241.40 394.90 245.98 397.27 250.54 C 398.86 252.29 396.98 254.65 395.00 254.55 C 391.72 252.53 391.94 248.40 391.97 245.04 C 391.97 241.89 392.79 238.82 393.79 235.86 C 394.62 233.13 394.68 229.76 397.22 227.96 Z" />
<path fill="#000000" stroke="#000000" stroke-width="0.09375" opacity="1.00" d=" M 247.20 236.30 C 248.18 234.54 249.39 232.94 250.83 231.54 C 251.79 232.34 252.75 233.15 253.71 233.97 C 253.59 237.69 250.37 239.60 248.11 242.08 C 246.74 243.47 246.76 245.86 245.04 246.95 C 241.95 248.62 241.40 252.56 238.65 254.57 C 236.85 255.84 235.59 257.70 233.99 259.19 C 233.01 258.74 232.02 258.29 231.04 257.84 C 231.00 257.10 230.92 255.63 230.88 254.89 C 233.13 253.43 234.03 250.75 235.99 249.00 C 237.94 246.97 240.73 245.56 241.73 242.78 C 242.67 239.95 245.79 238.81 247.20 236.30 Z" />
<path fill="#000000" stroke="#000000" stroke-width="0.09375" opacity="1.00" d=" M 166.11 243.15 C 167.39 241.07 169.45 239.66 170.95 237.75 C 172.14 238.06 173.33 238.37 174.52 238.69 C 174.38 247.72 174.45 256.75 175.20 265.75 C 176.47 268.59 178.44 271.11 179.32 274.13 C 179.69 276.57 179.33 279.07 179.61 281.53 C 181.14 285.37 182.30 289.46 185.52 292.30 C 184.04 293.61 182.14 294.10 180.20 294.22 C 177.47 290.56 175.65 286.31 174.59 281.91 C 174.93 272.76 169.15 265.16 166.07 256.90 C 165.94 252.32 165.89 247.72 166.11 243.15 Z" />
<path fill="#000000" stroke="#000000" stroke-width="0.09375" opacity="1.00" d=" M 140.47 240.61 C 145.13 241.46 144.19 246.68 143.61 250.13 C 141.29 248.65 139.53 246.71 138.76 244.04 C 139.32 242.89 139.89 241.75 140.47 240.61 Z" />
<path fill="#000000" stroke="#000000" stroke-width="0.09375" opacity="1.00" d=" M 260.92 255.35 C 265.27 254.22 269.06 251.76 273.01 249.72 C 274.04 251.38 275.04 253.07 276.09 254.73 C 270.73 255.29 266.79 260.51 261.20 259.77 C 261.08 258.30 260.99 256.82 260.92 255.35 Z" />
<path fill="#000000" stroke="#000000" stroke-width="0.09375" opacity="1.00" d=" M 239.81 257.86 C 242.16 254.59 247.38 252.24 250.55 255.78 C 249.32 257.60 247.80 259.16 245.62 259.71 C 243.12 260.37 241.54 262.49 239.76 264.19 C 238.10 263.97 236.30 263.93 234.97 262.78 C 234.60 259.94 238.46 259.79 239.81 257.86 Z" />
<path fill="#000000" stroke="#000000" stroke-width="0.09375" opacity="1.00" d=" M 153.99 257.02 C 155.19 256.55 156.40 256.11 157.63 255.72 C 158.62 256.85 159.64 257.95 160.79 258.93 C 160.47 262.02 158.65 264.78 158.95 267.96 C 159.14 275.79 154.01 282.37 153.43 290.07 C 153.47 293.09 150.08 293.17 147.87 293.12 C 148.52 288.90 148.43 284.39 150.64 280.60 C 154.04 273.21 154.30 265.01 153.99 257.02 Z" />
<path fill="#000000" stroke="#000000" stroke-width="0.09375" opacity="1.00" d=" M 255.54 264.50 C 260.76 263.16 266.05 261.97 271.09 260.01 C 273.22 259.39 274.82 261.14 276.46 262.18 C 272.99 267.43 266.41 268.17 260.85 269.92 C 257.58 270.09 253.79 270.75 251.53 267.78 C 252.59 266.39 253.76 264.94 255.54 264.50 Z" />
<path fill="#000000" stroke="#000000" stroke-width="0.09375" opacity="1.00" d=" M 288.36 265.27 C 292.76 264.57 297.08 262.75 301.60 263.30 C 303.46 263.76 303.42 265.99 302.06 267.00 C 300.34 269.74 296.60 268.41 294.42 270.56 C 291.94 272.88 288.46 271.51 285.51 272.29 C 283.75 274.27 281.57 275.55 278.89 275.73 C 277.75 273.60 277.83 271.25 278.99 269.16 C 282.72 269.63 285.17 266.57 288.36 265.27 Z" />
<path fill="#000000" stroke="#000000" stroke-width="0.09375" opacity="1.00" d=" M 329.28 263.19 C 332.18 261.93 332.10 266.07 332.14 267.90 C 327.94 269.47 324.06 272.02 319.50 272.34 C 314.30 275.21 308.32 277.16 302.34 277.04 C 301.37 275.83 300.38 274.63 299.50 273.35 C 301.74 272.05 304.30 271.99 306.81 271.85 C 314.31 268.99 321.91 266.40 329.28 263.19 Z" />
<path fill="#000000" stroke="#000000" stroke-width="0.09375" opacity="1.00" d=" M 139.92 270.02 C 140.35 268.33 142.02 267.55 143.20 266.44 C 147.32 270.42 143.42 276.10 140.37 279.41 C 139.17 283.51 136.13 286.70 134.94 290.79 C 133.09 295.96 129.17 300.16 127.87 305.52 C 124.17 309.20 120.95 313.42 119.57 318.53 C 116.66 323.61 116.07 330.23 110.74 333.58 C 110.10 332.45 109.32 331.37 108.96 330.11 C 110.44 326.85 111.34 323.34 113.16 320.24 C 115.40 316.56 115.75 311.94 118.55 308.56 C 119.87 307.20 121.43 306.10 122.66 304.67 C 124.26 299.40 127.43 294.83 129.86 289.95 C 132.22 282.81 137.29 277.02 139.92 270.02 Z" />
<path fill="#000000" stroke="#000000" stroke-width="0.09375" opacity="1.00" d=" M 214.98 278.06 C 218.11 276.15 218.57 272.48 220.05 269.43 C 222.56 273.84 218.70 278.40 218.79 283.00 C 217.53 283.00 216.26 282.99 215.00 282.99 C 215.00 281.34 214.99 279.70 214.98 278.06 Z" />
<path fill="#000000" stroke="#000000" stroke-width="0.09375" opacity="1.00" d=" M 225.21 273.00 C 225.93 273.00 227.39 273.01 228.12 273.02 C 228.16 277.41 226.87 281.69 224.69 285.48 C 222.44 288.87 222.93 293.08 223.10 296.94 C 224.01 304.18 223.04 311.51 223.81 318.76 C 222.64 322.53 224.04 327.04 221.01 330.03 C 219.52 334.44 217.17 338.49 216.15 343.05 C 215.72 345.16 212.18 344.99 211.70 342.97 C 210.93 334.26 217.05 327.00 218.45 318.68 C 218.45 311.44 218.85 304.16 218.06 296.94 C 218.02 292.47 217.28 287.70 219.62 283.64 C 220.26 279.52 222.84 276.27 225.21 273.00 Z" />
<path fill="#000000" stroke="#000000" stroke-width="0.09375" opacity="1.00" d=" M 404.20 277.66 C 407.98 278.94 410.95 281.45 413.86 284.05 C 420.65 286.05 426.58 289.84 432.69 293.30 C 437.10 294.37 440.71 297.23 444.43 299.72 C 443.53 300.95 442.63 302.18 441.73 303.40 C 436.46 299.51 429.37 299.02 424.59 294.35 C 419.90 292.04 414.94 290.26 410.40 287.65 C 407.87 285.60 405.29 283.62 402.70 281.64 C 403.15 280.29 403.66 278.97 404.20 277.66 Z" />
<path fill="#000000" stroke="#000000" stroke-width="0.09375" opacity="1.00" d=" M 335.66 290.37 C 336.29 289.92 337.56 289.03 338.19 288.58 C 340.02 289.78 341.52 291.40 343.35 292.61 C 346.55 293.96 350.38 294.66 352.48 297.70 C 349.62 301.73 344.06 299.80 340.94 297.14 C 338.48 295.52 336.37 293.30 335.66 290.37 Z" />
<path fill="#000000" stroke="#000000" stroke-width="0.09375" opacity="1.00" d=" M 145.31 297.00 C 145.98 296.99 147.31 296.98 147.98 296.97 C 149.00 298.62 149.14 300.55 148.29 302.31 C 146.04 306.04 143.90 309.84 141.55 313.51 C 138.39 317.01 135.07 320.38 132.04 323.99 C 129.73 327.63 127.99 331.88 124.35 334.44 C 121.97 338.30 118.76 341.54 116.35 345.39 C 115.28 349.54 114.56 354.17 111.20 357.19 C 107.97 359.81 106.83 364.32 102.94 366.23 C 101.93 365.66 100.96 365.03 100.02 364.35 C 101.49 361.53 103.03 358.68 105.40 356.50 C 109.10 353.23 110.19 348.20 111.56 343.68 C 114.86 338.65 118.90 334.14 122.12 329.07 C 127.04 323.96 129.75 316.86 135.97 313.00 C 139.08 307.65 143.10 302.84 145.31 297.00 Z" />
<path fill="#000000" stroke="#000000" stroke-width="0.09375" opacity="1.00" d=" M 452.33 301.08 C 454.85 301.92 457.60 301.85 460.07 302.91 C 466.74 306.17 474.38 306.19 481.34 308.60 C 483.97 309.48 486.84 308.56 489.50 309.26 C 490.85 310.72 492.41 311.94 494.28 312.70 C 489.89 316.46 483.73 314.22 478.70 313.21 C 473.22 312.42 468.00 310.52 462.54 309.68 C 460.29 307.51 457.17 307.34 454.29 306.71 C 451.89 305.86 452.68 303.02 452.33 301.08 Z" />
<path fill="#000000" stroke="#000000" stroke-width="0.09375" opacity="1.00" d=" M 359.76 303.89 C 362.55 303.47 364.76 304.72 366.52 306.79 C 369.25 307.26 372.06 306.92 374.83 307.00 C 375.61 307.94 376.41 308.88 377.21 309.83 C 375.61 312.50 374.43 316.04 370.94 316.70 C 364.37 316.38 360.16 310.04 359.76 303.89 Z" />
<path fill="#000000" stroke="#000000" stroke-width="0.09375" opacity="1.00" d=" M 394.40 310.02 C 393.82 306.39 398.11 306.96 400.40 307.44 C 402.67 311.51 407.04 313.67 409.62 317.49 C 411.92 320.34 413.35 323.76 415.83 326.48 C 416.24 328.79 415.54 331.32 416.81 333.44 C 417.98 335.75 417.38 338.45 417.40 340.95 C 416.43 342.87 415.36 344.75 414.67 346.81 C 413.42 347.20 412.20 347.65 410.99 348.11 C 409.57 347.04 408.52 345.57 407.94 343.90 C 407.82 341.03 409.65 338.59 410.51 335.96 C 410.60 332.44 410.09 328.74 408.21 325.71 C 404.26 324.66 402.34 320.91 399.29 318.54 C 397.99 315.51 395.93 312.91 394.40 310.02 Z" />
<path fill="#000000" stroke="#000000" stroke-width="0.09375" opacity="1.00" d=" M 192.17 319.15 C 193.71 319.06 195.26 319.00 196.81 318.96 C 198.06 322.50 198.72 326.49 196.98 330.01 C 196.24 330.01 194.76 330.00 194.02 330.00 C 194.52 326.19 193.40 322.68 192.17 319.15 Z" />
<path fill="#000000" stroke="#000000" stroke-width="0.09375" opacity="1.00" d=" M 205.02 319.97 C 205.72 319.98 207.11 320.00 207.81 320.01 C 208.65 321.56 209.83 323.07 209.52 324.96 C 209.30 329.57 210.84 335.56 206.00 338.32 C 204.95 337.82 203.91 337.32 202.87 336.82 C 204.45 332.77 204.87 328.32 204.14 324.05 C 203.76 322.59 204.48 321.26 205.02 319.97 Z" />
<path fill="#000000" stroke="#000000" stroke-width="0.09375" opacity="1.00" d=" M 512.51 321.99 C 513.74 321.30 514.92 320.53 516.19 319.89 C 517.83 320.27 519.25 321.26 520.83 321.86 C 521.31 323.87 521.88 325.86 522.24 327.91 C 520.89 328.59 519.60 329.35 518.34 330.17 C 517.85 329.20 517.36 328.24 516.88 327.28 C 515.38 326.92 513.92 326.44 512.49 325.90 C 512.49 324.59 512.50 323.29 512.51 321.99 Z" />
<path fill="#000000" stroke="#000000" stroke-width="0.09375" opacity="1.00" d=" M 213.27 351.28 C 214.37 348.52 217.45 347.64 220.18 347.88 C 217.59 355.35 213.30 362.24 207.48 367.59 C 205.04 369.97 202.13 371.80 198.87 372.82 C 197.21 373.03 197.09 374.71 196.64 375.99 C 194.75 376.01 192.65 375.73 191.15 377.15 C 189.49 378.73 187.21 377.79 185.36 377.18 C 185.59 375.86 185.83 374.54 186.07 373.23 C 189.11 373.20 191.42 371.08 194.11 369.99 C 197.23 368.65 199.12 365.52 202.14 364.03 C 204.05 363.14 205.74 361.70 206.67 359.79 C 208.10 356.38 211.96 354.78 213.27 351.28 Z" />
<path fill="#000000" stroke="#000000" stroke-width="0.09375" opacity="1.00" d=" M 80.77 370.20 C 86.01 366.43 87.57 359.52 93.11 355.99 C 94.10 356.89 95.05 357.83 95.97 358.80 C 94.65 360.62 93.29 362.43 92.49 364.56 C 89.04 367.55 86.41 371.28 83.93 375.06 C 81.16 375.71 81.19 372.05 80.77 370.20 Z" />
<path fill="#000000" stroke="#000000" stroke-width="0.09375" opacity="1.00" d=" M 60.38 365.96 C 61.03 365.97 62.34 365.99 62.99 366.00 C 63.00 366.66 63.03 367.97 63.04 368.62 C 61.42 369.36 59.83 370.17 58.17 370.83 C 58.82 369.16 59.63 367.58 60.38 365.96 Z" />
<path fill="#000000" stroke="#000000" stroke-width="0.09375" opacity="1.00" d=" M 65.34 373.00 C 66.95 371.22 68.32 369.18 70.45 367.98 C 71.00 368.38 72.08 369.18 72.62 369.58 C 71.59 370.68 70.60 371.83 69.63 373.00 C 68.20 373.00 66.77 373.00 65.34 373.00 Z" />
<path fill="#000000" stroke="#000000" stroke-width="0.09375" opacity="1.00" d=" M 371.17 380.80 C 371.49 377.93 374.35 375.72 377.19 375.76 C 376.39 377.49 375.60 379.24 375.09 381.09 C 374.11 381.02 372.15 380.88 371.17 380.80 Z" />
</g>
</svg>
