<?xml version="1.0" encoding="utf-8"?>
<!-- Generator: Adobe Illustrator 16.0.0, SVG Export Plug-In . SVG Version: 6.00 Build 0)  -->
<!DOCTYPE svg PUBLIC "-//W3C//DTD SVG 1.1//EN" "http://www.w3.org/Graphics/SVG/1.1/DTD/svg11.dtd">
<svg version="1.1" id="Calque_1" xmlns="http://www.w3.org/2000/svg" xmlns:xlink="http://www.w3.org/1999/xlink" x="0px" y="0px"
	 width="474px" height="512px" viewBox="0 0 474 512" enable-background="new 0 0 474 512" xml:space="preserve">
<g id="Layer_x0020_1">
	<path fill="#FFFFFF" stroke="#000000" stroke-width="4.4992" d="M93.359,500.387c54.259,2.714,48.833-10.851,40.695-75.961
		c24.417,8.138,18.99,54.258,35.268,75.961c13.566-16.276,10.47-25.493,8.14-54.258c18.122,27.074,10.851,46.12,24.417,54.258
		c18.991-10.851,13.087-19.374,16.277-43.406c7.147,8.454,18.991,24.416,21.704,40.695h56.973
		c10.851-16.279,25.32-21.704,37.98-32.557c0,48.834,37.982,37.981,65.112-13.563c-10.853,51.545,0,51.545,40.694,16.277
		c-18.991,29.843,1.058,31.119,8.139,40.693"/>
	<path d="M164.251,204.935c48.478,64.852,89.173,178.796,75.608,298.167h56.973c-6.777-30.41-12.977-61.782-19.048-84.946h0.003
		c33.168-21.119,57.463-48.958,72.886-83.514l-12.728-8.279c-19.307,28.609-41.15,48.636-65.531,60.082
		c-0.91,0.941-1.762,1.864-2.561,2.766c-19.582-68.196-39.849-114.661-76.003-195.864L164.251,204.935L164.251,204.935z"/>
	<g id="_183109376">
		<path id="_180260944" fill="#FFFFFF" stroke="#000000" stroke-width="8.9995" d="M371.711,304.432
			c76.464,7.017,109.213-96.15,50.007-120.138C362.512,160.306,318.051,276.373,371.711,304.432z"/>
		<path id="_180261952" fill="#FFFFFF" stroke="#000000" stroke-width="8.9995" d="M370.859,322.603
			c-43.079,63.563,31.434,142.071,81.036,101.817S421.348,289.171,370.859,322.603z"/>
		<path id="_180262120" fill="#FFFFFF" stroke="#000000" stroke-width="8.9995" d="M346.922,296.283
			c25.309-72.495-66.869-129.231-104.469-77.587C204.854,270.34,306.713,341.561,346.922,296.283z"/>
		<circle id="_180256720" fill="#FFFFFF" stroke="#000000" stroke-width="8.9995" cx="353.803" cy="315.907" r="18.991"/>
		<path id="_183234840" fill="none" stroke="#000000" stroke-width="8.9995" d="M299.545,261.646
			c21.098,7.704,35.246,20.833,42.449,39.387"/>
		<path id="_183232464" fill="none" stroke="#000000" stroke-width="8.9995" d="M380.933,242.657
			c4.581,19.176-0.573,38.443-15.46,57.798"/>
		<path id="_183234816" fill="none" stroke="#000000" stroke-width="8.9995" d="M369.291,326.899
			c19.038,12.454,31.961,26.876,38.771,43.268"/>
	</g>
	<g id="_183109640">
		<circle id="_180262456" fill="#FFFFFF" stroke="#000000" stroke-width="8.9995" cx="172.634" cy="182.746" r="23.712"/>
		<path id="_180262288" fill="#FFFFFF" stroke="#000000" stroke-width="8.9995" d="M187.626,164.374
			c76.649,62.005,185.168-24.811,139.048-92.634S150.331,96.156,187.626,164.374L187.626,164.374z"/>
		<path id="_180261208" fill="#FFFFFF" stroke="#000000" stroke-width="8.9995" d="M166.239,151.281
			C220.523,68.982,123.596-30.609,60.563,21.867C-2.471,74.344,101.958,195.013,166.239,151.281z"/>
		<path id="_180261064" fill="#FFFFFF" stroke="#000000" stroke-width="8.9995" d="M133.562,169.776
			C41.231,135.211-34.24,251.903,30.97,301.648C96.183,351.395,190.527,222.687,133.562,169.776z"/>
		<path id="_180257728" fill="#FFFFFF" stroke="#000000" stroke-width="8.9995" d="M190.7,166.769
			c15.507-23.657,35.511-39.055,60.012-46.196"/>
		<path id="_182938968" fill="#FFFFFF" stroke="#000000" stroke-width="8.9995" d="M163.508,153.026
			c-12.732-23.79-32.498-40.033-59.297-48.73"/>
		<path id="_182939160" fill="#FFFFFF" stroke="#000000" stroke-width="8.9995" d="M142.192,185.683
			c-24.25,11.691-42.336,27.97-54.259,48.833"/>
	</g>
</g>
</svg>
