<?xml version="1.0"?>
<svg xmlns="http://www.w3.org/2000/svg" xmlns:xlink="http://www.w3.org/1999/xlink" viewBox="0 0 156.3 161.7"
	 style="enable-background:new 0 0 156.3 161.7;" xml:space="preserve">
<style type="text/css">
	.st0{fill:url(#SVGID_1_);}
	.st1{fill:url(#SVGID_2_);}
	.st2{fill:url(#SVGID_3_);}
	.st3{fill:url(#SVGID_4_);}
</style>
<switch>
	<g>
		<path d="M26.4,93.3c-1.1-1.8-0.9-3.4-0.3-5.1c1.4-3.7,4.2-6.2,7.3-8.3c0.4-0.2,0.7-0.5,0.9-0.6c-2.1-1.5-4.5-2.8-6.5-4.6
			c-5.1-4.6-7.9-10.6-9.8-17c-1.8-5.9-2.4-12.1-2.4-18.2c0-7.7-1.7-15.1-5.3-21.9c-1.1-2-2.4-3.9-3.7-5.9c1.4-1.3,3.2-1.5,5-1.5
			c5.7-0.1,10.9,1.6,15.8,4.4c5.1,3,9.2,7,12.6,11.7c0.2,0.3,0.5,0.6,0.8,1c2.3-7.3-1.5-12.6-5.3-18c2-1.2,4.1-0.9,6.1-0.6
			c7.6,1.1,13.7,5,18.7,10.6c1.9,2.1,3.4,4.5,5,6.8c0.3,0.3,0.5,0.7,0.5,0.8c4.3-7.2,8.5-14.4,13-22c4.8,6.1,7.8,12.6,10.8,18.9
			c2.4-2.7,4.8-5.5,7.4-8c3.8-3.6,8.2-6.3,13.2-7.7c2.7-0.7,4.2-0.7,7,0.3c-3.4,6.1-4.8,12.5-3.1,19.3c1.4-1.9,2.7-4,4.3-5.8
			c5.3-6.2,11.7-10.4,19.9-11.7c2.4-0.4,4.9-0.6,7.2,0.1c0.7,0.2,1.4,0.6,2.3,1c-0.4,0.5-0.7,0.8-1,1.1c-4.4,5-7.3,10.6-7.5,17.4
			c-0.1,3.8,0.2,7.6,0.5,11.4c0.6,8-0.1,15.7-3.5,23.1c-2.4,5.3-5.8,9.9-10.1,13.9c-0.1,0.1-0.3,0.3-0.4,0.4
			c-0.1,0.1-0.1,0.1-0.1,0.2c4.2,3.8,8,7.7,6,14.3c-0.8-0.5-1.4-0.9-2-1.3c-1.6-1.1-3.3-1.3-5.1-0.7c-2.9,0.8-5.3,2.5-7.5,4.4
			c-3,2.7-6.4,4.5-10.4,5.2c-3.8,0.7-7.6,0.5-11.3-1c-0.4-0.2-0.9-0.2-1.3-0.1c-6.3,1.4-10.8,7-10.7,13c0.1,6.8-0.3,13.6-2.1,20.2
			c-0.7,2.4-1.7,4.6-2.6,6.9c1.8-0.2,3.7-0.4,5.7-0.6c0.6-0.1,1.2-0.2,1.8,0c1,0.2,1.3,1,1.1,2c-0.2,1.1-1.1,2-1.9,2
			c-2.7-0.1-5.4-0.2-8.1-0.1c-1.7,0-1.9-1.4-2.6-2.3c-0.7-0.8,0-1.3,0.4-1.9c2-2.9,2.9-6.2,3.3-9.7c0.6-4.9,0.9-9.8,1.2-14.7
			c0.1-1.5-0.4-2-2.1-2.3c0,0.5-0.1,1-0.1,1.5c0,5.4,0,10.7-1.1,16c-0.9,4.1-2.2,7.9-5.3,10.9c-3.2,3.1-7.2,4.1-11.5,4
			c-2.1-0.1-4.3-0.3-6.4-0.8c-2.1-0.5-2.4-2.2-0.8-3.7c1.6-1.6,3.6-1.9,5.8-1.8c2.9,0.2,5.9,0.5,8.8,0.8c1,0.1,1.5-0.3,2-1.1
			c3.2-4.7,4.7-10,5.2-15.6c0.3-4.4,0.1-8.8-1.6-13c-1.2-2.9-3-5.2-5.8-6.8c-1.9-1.1-3.7-2.3-5.6-3.4c-0.3-0.2-0.8-0.3-1-0.2
			c-4,1.9-8,1.4-12,0.3c-2.8-0.8-5.2-2.2-7.5-3.9c-2.5-1.8-5.2-3.2-8.2-3.7C30.3,91.5,28.4,92,26.4,93.3z M63.9,140.7
			c-1.1,0.1-2.2,0.3-3.2,0.4c-1.5,0.1-2.7-0.5-4.2,0c-0.2,0.1-0.9,0.3-0.9,0.6c0,0.2,0.2,0.4,0.8,0.6c1.3,0.4,2.2,0.1,5.4,0
			C62.9,142.3,63.6,141.8,63.9,140.7z"/>
		<path d="M62.1,150c-0.8-0.1-1.9-0.3-3-0.5c-1.4-0.2-2.8-0.5-4.1-0.8c-0.4-0.1-0.9-0.4-0.9-0.7c0-0.3,0.3-0.8,0.6-1
			c1.4-0.8,2.9-1,4.4-0.5c2.1,0.8,4.1,0.5,6.1-0.2c1.1-0.3,2.2-0.6,3.2-0.8c0.3-0.1,0.7-0.1,1.1-0.1c0.9,0.1,1.8,0.4,2,1.4
			c0.2,1-0.5,1.5-1.3,1.9c-0.5,0.3-1,0.5-1.6,0.5C66.6,149.6,64.5,149.8,62.1,150z"/>
		<path d="M90.7,153.6c-1.7-0.2-3.4-0.4-5.1-0.7c-0.4-0.1-1.1-0.6-1.1-0.9c0-0.4,0.4-1.1,0.8-1.3c0.9-0.4,1.9-0.8,2.8-0.9
			c2.6-0.2,5.2-0.3,7.9-0.3c0.6,0,1.3,0.1,1.8,0.4c0.4,0.2,0.9,0.8,1,1.2c0,0.4-0.5,1.1-0.9,1.2c-1.2,0.4-2.1,0.8-4.3,1
			C93.1,153.4,92.1,153.5,90.7,153.6z"/>
		<path d="M81.1,144.7c1.2,0,2.4,0,3.6,0c1,0,1.9,0.3,2.1,1.4c0.2,1-0.7,1.5-1.5,1.7c-3.1,1-6.3,1.1-9.4,0.2
			c-1.5-0.4-1.7-1.6-0.4-2.6c0.6-0.4,1.4-0.7,2.1-0.8C78.7,144.7,79.9,144.7,81.1,144.7z"/>
		<path d="M59.5,151.5c1.9-0.4,3.3-0.2,4.1,0.1c0.6,0.2,1.7,0.5,1.8,1.1c0.1,0.7-1.1,1.4-1.5,1.6c-0.7,0.4-1.6,1.3-6.8,0.6
			c-1-0.1-2-0.4-3-0.8c-0.4-0.2-0.8-0.7-0.8-1.2c0-0.5,0.6-0.8,0.9-1C55.8,151.1,58.4,151.3,59.5,151.5z"/>
		<path d="M95.5,142.3c-0.9,0-1.8,0-2.8,0c-0.5,0-1.1,0-1.5-0.3c-0.5-0.3-1.3-0.8-1.3-1.3c0-0.5,0.6-1.2,1.1-1.5
			c2.5-1.1,5.2-1.2,7.9-0.4c0.3,0.1,0.7,0.2,0.8,0.5c0.3,0.6,0.8,1.3,0.7,1.8c-0.1,0.5-0.9,1-1.5,1.1
			C97.9,142.4,96.7,142.3,95.5,142.3C95.5,142.3,95.5,142.3,95.5,142.3z"/>
		<path d="M96.9,147.2c-1.7-0.1-3.4-0.1-5.1-0.3c-1.2-0.1-1.5-0.9-0.6-1.8c0.5-0.5,1.3-1.1,2-1.1c2.6-0.1,5.2-0.1,7.8,0
			c1.3,0,2,0.8,1.9,1.7c0,0.3-0.1,0.6-0.3,0.8c-0.4,0.5-1.2,0.6-1.8,0.6C99.6,147.2,98.3,147.2,96.9,147.2z"/>
		<path d="M76.8,153.6c-1.6-0.2-2.9-0.3-4.1-0.6c-0.5-0.1-1.1-0.8-1.1-1.1c0-0.5,0.6-1.3,1-1.3c2.4-0.3,4.8-1.7,7.4-0.6
			c0.5,0.2,1.2,0.1,1.7,0.3c0.5,0.2,1,0.7,1.1,1.2c0.1,0.2-0.5,1-0.9,1.1C80.2,153,78.4,153.3,76.8,153.6z"/>
		<linearGradient id="SVGID_1_" gradientUnits="userSpaceOnUse" x1="46.2581" y1="81.7454" x2="46.2581" y2="99.0048">
			<stop  offset="0" style="stop-color:#FFFFFF"/>
			<stop  offset="4.214568e-02" style="stop-color:#EDF9F0"/>
			<stop  offset="0.1912" style="stop-color:#B3E4BF"/>
			<stop  offset="0.3353" style="stop-color:#82D296"/>
			<stop  offset="0.4707" style="stop-color:#5CC576"/>
			<stop  offset="0.5955" style="stop-color:#41BB5F"/>
			<stop  offset="0.7058" style="stop-color:#31B551"/>
			<stop  offset="0.79" style="stop-color:#2BB34C"/>
		</linearGradient>
		<path class="st0" d="M31.1,87.9c0.1,0.1,0.2,0.2,0.4,0.3c0.6-0.1,1.2-0.2,1.8-0.2c3.4-0.1,5.5,1.7,9.2,3.6c1.5,0.8,3.9,2,7.1,2.8
			c1.8,0.5,7.2,1.9,8.5,0c0.5-0.7-0.1-1.1,0.3-3.5c0.3-2,0.9-3.5,1-3.8c0.4-0.8,1-2,2.1-3.2c-0.2-0.1-0.5-0.2-0.7-0.3
			c-2.7-1.1-5.4-2.2-8.2-3.3c-0.6-0.2-1.3-0.3-1.9-0.1c-3.4,1.1-6.8,1.6-10.4,0.6c-0.5-0.1-1.2-0.1-1.6,0.2
			c-1.7,1.1-3.4,2.2-4.9,3.5C32.7,85.4,32,86.8,31.1,87.9z"/>
		<linearGradient id="SVGID_2_" gradientUnits="userSpaceOnUse" x1="79.1639" y1="85.3542" x2="79.1639" y2="106.3498">
			<stop  offset="0" style="stop-color:#FFFFFF"/>
			<stop  offset="4.214568e-02" style="stop-color:#EDF9F0"/>
			<stop  offset="0.1912" style="stop-color:#B3E4BF"/>
			<stop  offset="0.3353" style="stop-color:#82D296"/>
			<stop  offset="0.4707" style="stop-color:#5CC576"/>
			<stop  offset="0.5955" style="stop-color:#41BB5F"/>
			<stop  offset="0.7058" style="stop-color:#31B551"/>
			<stop  offset="0.79" style="stop-color:#2BB34C"/>
		</linearGradient>
		<path class="st1" d="M77,105.2c1,0.5,2.4,1,3.8,0.5c1.7-0.7,1.5-2.3,3.5-4.5c0.7-0.7,2-2.1,5.4-3.5c1.2-0.5,2.3-1.1,3.3-2
			c2.9-2.6,3-7.2,0.3-9.7c-0.6-0.6-1.2-0.7-2-0.4c-7.9,2.9-15.9,2.7-23.8,0.1c-1.3-0.4-2-0.1-2.8,0.9c-2,2.6-2,6.8,0.1,9.2
			c1.1,1.3,2.7,2.1,4,3.2c1.9,1.7,3.2,1.4,4.9,2.7C75.3,102.9,76.4,104.3,77,105.2z"/>
		<linearGradient id="SVGID_3_" gradientUnits="userSpaceOnUse" x1="112.3359" y1="82.9072" x2="112.3359" y2="98.4234">
			<stop  offset="0" style="stop-color:#FFFFFF"/>
			<stop  offset="4.214568e-02" style="stop-color:#EDF9F0"/>
			<stop  offset="0.1912" style="stop-color:#B3E4BF"/>
			<stop  offset="0.3353" style="stop-color:#82D296"/>
			<stop  offset="0.4707" style="stop-color:#5CC576"/>
			<stop  offset="0.5955" style="stop-color:#41BB5F"/>
			<stop  offset="0.7058" style="stop-color:#31B551"/>
			<stop  offset="0.79" style="stop-color:#2BB34C"/>
		</linearGradient>
		<path class="st2" d="M97.6,85.3c0.6,0.9,1,1.8,1.3,2.7c0.1,0.5,0.5,2,0.2,4c-0.3,2-1,2.2-0.8,2.9c0.5,1.8,5.4,2.6,9.5,1.5
			c2.2-0.6,3.8-1.7,6.7-3.6c2.8-1.9,3-2.5,4.8-3.4c1.7-0.9,4.2-1.8,7.9-1.9c-0.3-0.8-0.7-1.9-1.5-2.9c-0.5-0.6-1.1-1.1-1.7-1.6
			c-1.1-0.8-2.3-1-3.7-0.6c-1.5,0.5-3.2,0.8-4.7,1.3c-3.6,1-7.2,1.2-10.9,0.3C102,83.4,99.8,84.2,97.6,85.3z"/>
		<linearGradient id="SVGID_4_" gradientUnits="userSpaceOnUse" x1="77.3949" y1="82.4292" x2="77.3949" y2="12.8816">
			<stop  offset="0" style="stop-color:#FFFFFF"/>
			<stop  offset="6.928230e-02" style="stop-color:#FEF0E0"/>
			<stop  offset="0.2129" style="stop-color:#FCD3A6"/>
			<stop  offset="0.3518" style="stop-color:#FABC75"/>
			<stop  offset="0.4823" style="stop-color:#F9A94F"/>
			<stop  offset="0.6026" style="stop-color:#F89C34"/>
			<stop  offset="0.7089" style="stop-color:#F79424"/>
			<stop  offset="0.79" style="stop-color:#F7911E"/>
		</linearGradient>
		<path class="st3" d="M79.2,13.7c7.5,11.2,13.4,23,16.2,36.1c1.3,6,2,12.1,0.7,18.3c-1.2,5.1-3.7,9.5-7.8,12.7
			c-6,4.6-14.4,4.1-20.2-1.2c-5.3-4.8-7.7-10.9-7.8-17.9c-0.1-6.9,1.7-13.5,4.1-19.9c3.6-9.8,8.8-18.9,14.6-27.6
			C78.9,14,79,13.9,79.2,13.7z M40.2,62.1c-1.7-5.5-2.5-11.2-2.5-17c0-4.2,0.9-8.5,1.3-12.7c0.1-0.5-0.1-1.2-0.4-1.5
			c-2.5-2.8-4.8-5.7-7.5-8.2c-5.1-4.6-11-7.4-17.7-7.6c1.3,2.9,2.9,5.7,3.9,8.8c2.6,7.4,3.1,15.1,3.1,22.9c0,4,0.7,7.8,2.2,11.4
			c2.5,6.2,6.1,11.7,11.7,15.6c4,2.8,8.5,3.6,13.6,2.1C44.1,71.8,41.8,67.1,40.2,62.1z M109.1,79.4c1.8,0.1,3.7,0.5,5.5,0.4
			c3.9-0.2,7.2-2.1,9.9-4.9c7.4-7.5,11.3-16.6,11-27.2c-0.1-5.6-0.6-11.2-0.7-16.7c-0.1-4.8,1.4-9.3,4-13.3c0.7-1.1,1.6-2.2,2.5-3.4
			c-3.2,0.1-6.1,0.8-8.9,2.1c-7.5,3.6-12.6,9.6-16.2,17c-0.2,0.3-0.2,0.8-0.1,1.1c1.2,4.9,2.2,9.9,2.6,14.9c0.4,6,0.1,11.8-1.9,17.5
			c-1.6,4.6-4.1,8.6-7.8,11.9C109.1,79.1,109.1,79.2,109.1,79.4z M95.7,82c9.4-1.8,17.1-9.7,18.8-19.4c1.1-6.5,0.5-13-0.7-19.4
			c-0.9-4.6-2.2-9.1-3.3-13.7c-0.9-3.8-1.4-7.6-0.4-11.4c0.4-1.5,0.9-2.9,1.5-4.7c-1.6,0.4-3.1,0.7-4.5,1.3
			c-6.5,2.5-10.9,7.3-14.4,13.2c-0.2,0.3-0.2,0.9,0,1.3c4.4,8.3,7.5,17.1,8.2,26.6c0.3,3.4,0.4,7-0.1,10.4c-0.7,5-3.1,9.4-5.6,13.6
			c-0.5,0.8-0.9,1.5-1.6,2.6C94.6,82.1,95.1,82.1,95.7,82z M45,18.7c1.2,4,0.9,8.2-0.1,12.2c-1.6,5.7-2.4,11.5-2.3,17.5
			c0.1,6.4,1.4,12.5,4.3,18.2c2.8,5.4,6.6,9.8,12.1,12.5c1.2,0.6,2.5,1,3.9,1.6c-1.1-1.8-2.1-3.2-2.9-4.8c-4-8.1-4.8-16.6-3.2-25.5
			c1.1-5.9,3.2-11.5,5.5-17.1c0.2-0.5,0.3-1.4,0-1.9c-2.8-4.9-6.1-9.4-10.3-13.2c-2.8-2.6-5.9-4.6-9.5-5.5
			C43.4,14.8,44.4,16.7,45,18.7z"/>
	</g>
</switch>
</svg>