<?xml version="1.0" encoding="UTF-8" standalone="no"?>
<!DOCTYPE svg PUBLIC "-//W3C//DTD SVG 20010904//EN" "http://www.w3.org/TR/2001/REC-SVG-20010904/DTD/svg10.dtd">
<svg version="1.0" xmlns="http://www.w3.org/2000/svg" viewBox="0 0 1631.000000 1457.000000" preserveAspectRatio="xMidYMid meet" height="440px" width="520px">

<g transform="translate(0.000000,1457.000000) scale(0.100000,-0.100000)" fill="#000000" stroke="none">
<path d="M8035 14418 c-373 -528 -502 -717 -707 -1038 -177 -278 -459 -741 -539 -887 -19 -35 -37 -63 -41 -63 -4 0 -15 12 -25 28 -32 51 -206 276 -306 395 -126 150 -371 403 -507 521 -251 220 -502 382 -785 506 -27 12 -63 28 -80 35 -90 41 -324 124 -460 164 -309 91 -607 150 -955 190 -96 11 -196 23 -222 26 -32 4 -48 2 -48 -5 0 -6 26 -48 58 -93 206 -290 353 -583 416 -833 59 -232 73 -553 36 -840 -22 -172 -28 -204 -40 -204 -4 0 -20 19 -36 42 -134 196 -455 545 -694 753 -453 393 -884 624 -1400 748 -234 56 -279 65 -399 82 -62 8 -123 17 -135 20 -23 5 -183 19 -361 32 -183 13 -717 10 -776 -5 -11 -2 5 -23 54 -70 165 -159 339 -408 476 -683 285 -568 444 -1229 491 -2034 6 -104 13 -213 15 -241 2 -28 11 -152 20 -275 45 -669 133 -1177 281 -1630 43 -134 87 -254 118 -324 8 -16 26 -59 42 -95 238 -544 650 -1054 1129 -1397 179 -128 454 -282 579 -326 l39 -13 -64 -49 c-252 -191 -532 -470 -640 -638 -58 -89 -142 -260 -184 -371 -41 -111 -110 -345 -103 -351 2 -3 38 2 79 11 498 102 871 90 1122 -37 23 -12 128 -86 232 -164 214 -160 292 -213 450 -308 276 -164 586 -280 850 -316 44 -6 109 -15 145 -20 84 -12 472 -7 620 8 137 14 312 43 468 77 l113 25 87 -79 c213 -191 411 -311 669 -408 119 -44 218 -107 295 -185 73 -75 121 -146 194 -289 35 -69 75 -131 100 -157 l42 -41 11 -159 c26 -376 35 -829 23 -1133 -7 -162 -14 -311 -16 -330 -3 -19 -10 -93 -16 -165 -13 -148 -50 -383 -81 -510 -86 -364 -294 -697 -554 -889 -144 -107 -202 -130 -375 -151 -69 -9 -177 -23 -240 -32 -94 -14 -189 -16 -528 -14 -362 2 -422 0 -484 -15 -104 -26 -145 -68 -122 -129 9 -24 49 -41 144 -61 76 -17 131 -19 515 -18 399 1 439 2 555 23 338 60 583 183 800 401 315 316 500 773 583 1445 20 169 22 220 22 815 l0 635 30 60 c35 71 71 98 152 114 72 14 126 1 163 -39 58 -62 70 -177 70 -676 0 -220 -4 -447 -9 -505 -6 -57 -15 -162 -21 -234 -24 -282 -94 -606 -174 -805 -24 -61 -85 -184 -135 -273 -147 -264 -172 -339 -174 -527 -2 -119 18 -181 78 -248 25 -27 68 -61 97 -76 102 -50 152 -56 638 -71 250 -8 547 -19 660 -25 320 -17 658 -21 719 -9 136 26 214 78 226 148 15 89 -46 146 -174 162 -37 4 -185 4 -331 -1 -146 -6 -290 -10 -320 -11 -30 -1 -111 -5 -180 -10 -187 -13 -1029 -28 -1078 -19 -155 28 -170 249 -34 465 210 331 330 704 396 1230 49 386 54 1049 10 1360 -2 17 -9 89 -16 161 l-12 131 41 49 c22 27 59 89 83 137 60 127 129 224 213 303 88 83 171 133 292 176 233 83 475 235 671 421 l61 58 91 -20 c318 -69 545 -95 847 -96 232 0 381 13 530 46 101 23 347 101 391 124 16 8 33 15 37 15 14 0 206 99 305 157 133 78 287 184 480 330 173 131 218 157 322 191 234 77 611 74 975 -7 50 -12 95 -21 101 -21 19 0 -56 258 -123 419 -111 269 -218 419 -479 671 -103 99 -265 238 -343 292 -27 19 -22 33 16 43 46 11 262 120 379 191 398 241 750 576 1025 974 107 155 240 392 313 560 16 36 34 79 42 95 31 70 75 190 118 324 148 453 236 961 281 1630 9 123 18 247 20 275 2 28 9 137 15 241 47 805 206 1466 491 2034 137 275 311 524 476 683 49 47 65 68 54 70 -59 15 -593 18 -776 5 -178 -13 -338 -27 -361 -32 -12 -3 -73 -12 -135 -20 -120 -17 -165 -26 -399 -82 -516 -124 -947 -355 -1400 -748 -239 -208 -560 -557 -694 -753 -16 -23 -32 -42 -36 -42 -12 0 -18 32 -40 204 -37 287 -23 608 36 840 63 250 210 543 416 833 32 45 58 87 58 93 0 7 -16 9 -47 5 -27 -3 -127 -15 -223 -26 -348 -40 -646 -99 -955 -190 -136 -40 -370 -123 -460 -164 -16 -7 -52 -23 -80 -35 -354 -156 -640 -355 -964 -674 -215 -212 -383 -403 -557 -639 l-103 -138 -87 148 c-350 597 -619 1017 -968 1514 -337 478 -329 468 -356 468 -21 0 -42 -24 -125 -141z m267 -573 c307 -460 571 -893 843 -1385 208 -376 519 -1007 630 -1280 12 -30 41 -100 64 -155 172 -412 329 -914 401 -1279 100 -512 89 -1117 -31 -1626 -194 -820 -709 -1396 -1434 -1603 -150 -43 -165 -46 -325 -73 -211 -36 -369 -36 -580 0 -160 27 -175 30 -325 73 -541 155 -970 517 -1235 1042 -283 564 -376 1447 -230 2187 75 377 224 850 405 1289 20 50 47 115 60 145 162 397 564 1185 862 1690 106 179 315 521 401 655 141 220 347 525 354 523 3 -2 66 -93 140 -203z m-4102 10 c373 -70 706 -191 1015 -367 337 -193 679 -501 979 -883 149 -189 326 -445 326 -472 0 -5 -30 -74 -66 -154 -169 -369 -357 -849 -472 -1209 -167 -517 -267 -960 -319 -1405 -18 -159 -24 -561 -11 -710 61 -672 336 -1312 770 -1796 50 -55 88 -102 86 -104 -6 -6 -238 35 -318 56 -413 112 -828 346 -1160 655 -698 647 -1073 1480 -1143 2539 -32 474 -2 958 89 1431 34 174 49 237 143 599 145 553 156 1107 31 1513 -27 86 -94 243 -126 294 l-26 41 63 -7 c35 -4 98 -14 139 -21z m8096 -14 c-32 -50 -99 -208 -126 -293 -125 -406 -114 -960 31 -1513 94 -362 109 -425 143 -599 72 -376 98 -653 99 -1056 0 -590 -64 -1010 -231 -1510 -171 -512 -499 -1012 -922 -1404 -332 -309 -747 -543 -1160 -655 -80 -21 -312 -62 -318 -56 -2 2 36 49 86 104 434 484 709 1124 770 1796 13 149 7 551 -11 710 -53 450 -151 882 -325 1425 -115 359 -319 879 -473 1211 -33 69 -59 128 -59 132 0 12 107 174 188 287 304 420 641 760 967 975 345 227 744 384 1170 460 118 21 127 22 163 24 l32 1 -24 -39z m-11231 -136 c495 -53 931 -192 1281 -405 416 -255 889 -706 1332 -1272 51 -65 53 -68 43 -105 -47 -175 -129 -764 -153 -1098 -23 -322 -12 -1086 18 -1238 2 -12 11 -74 19 -137 30 -230 71 -409 142 -625 126 -385 319 -748 590 -1110 122 -163 192 -244 362 -417 93 -95 139 -149 130 -152 -137 -46 -619 -66 -889 -37 -370 40 -746 171 -1039 361 -584 379 -1069 1143 -1291 2030 -57 228 -102 488 -120 690 -6 69 -13 143 -16 165 -2 22 -8 168 -14 325 -10 311 -12 335 -40 645 -87 928 -318 1713 -652 2212 -27 40 -69 98 -93 128 -25 30 -45 58 -45 61 0 10 273 -3 435 -21z m14625 21 c0 -4 -20 -31 -45 -61 -171 -211 -337 -538 -460 -909 -141 -425 -235 -900 -285 -1431 -28 -309 -30 -334 -40 -645 -6 -157 -12 -303 -14 -325 -3 -22 -10 -96 -16 -165 -18 -202 -63 -462 -120 -690 -222 -887 -707 -1651 -1291 -2030 -293 -190 -669 -321 -1039 -361 -270 -29 -752 -9 -889 37 -9 3 37 57 130 152 170 173 240 254 362 417 414 554 651 1114 732 1735 8 63 17 125 19 137 30 153 41 913 18 1238 -24 333 -106 923 -153 1098 -11 43 -13 40 185 282 320 390 724 778 1041 997 351 243 707 384 1183 469 206 37 682 75 682 55z m-10469 -6861 c314 -189 597 -303 979 -395 74 -18 141 -34 149 -37 11 -3 6 -12 -16 -36 -135 -145 -250 -353 -294 -532 -46 -191 -1 -456 124 -740 20 -44 34 -81 33 -82 -7 -7 -203 -45 -321 -63 -424 -64 -816 -44 -1122 56 -113 37 -284 108 -350 145 -156 88 -287 173 -341 221 -162 142 -323 254 -437 303 -222 95 -480 137 -722 116 -70 -6 -143 -13 -160 -17 l-33 -6 14 41 c16 43 74 163 108 221 128 217 375 459 680 667 l97 66 114 -22 c62 -12 194 -28 292 -36 159 -13 200 -13 350 0 168 15 328 42 435 72 111 32 216 67 265 89 27 13 53 23 58 23 4 1 48 -24 98 -54z m6031 32 c52 -23 159 -59 268 -90 107 -30 267 -57 435 -72 151 -13 191 -13 352 0 100 8 227 24 283 35 l102 20 96 -67 c259 -181 517 -422 624 -583 55 -85 168 -305 168 -330 0 -9 -10 -11 -32 -6 -96 19 -292 27 -407 17 -341 -31 -572 -131 -846 -367 -212 -182 -460 -320 -748 -415 -251 -82 -505 -111 -815 -91 -176 11 -397 39 -487 61 -22 6 -66 15 -98 22 -56 10 -58 11 -44 32 22 36 84 196 112 292 44 150 56 225 56 342 1 92 -4 128 -26 204 -43 149 -149 342 -256 463 -46 52 -48 64 -11 72 178 38 400 99 527 144 175 63 473 207 618 300 34 22 65 40 69 40 4 0 31 -11 60 -23z m-4320 -467 c78 -61 267 -167 383 -215 280 -116 512 -160 845 -160 213 0 350 14 507 51 168 39 363 110 472 171 104 57 189 109 232 140 l46 33 69 -42 c285 -170 444 -426 444 -716 0 -159 -61 -400 -137 -541 -56 -105 -107 -171 -190 -252 -120 -116 -177 -152 -478 -305 -220 -111 -284 -148 -352 -202 -22 -17 -45 -32 -49 -32 -14 0 -164 -153 -164 -168 0 -7 -7 -15 -15 -18 -8 -4 -15 -11 -15 -16 0 -5 -8 -22 -18 -36 -10 -15 -24 -47 -32 -72 -7 -25 -28 -66 -47 -93 -18 -26 -33 -50 -33 -54 0 -13 -53 -63 -67 -63 -7 0 -13 -4 -13 -8 0 -17 -104 -42 -175 -42 -122 0 -192 36 -265 135 -22 30 -40 57 -40 60 0 3 -9 25 -19 48 -11 24 -23 55 -26 70 -4 15 -11 27 -16 27 -4 0 -15 16 -25 35 -18 39 -202 220 -233 230 -12 3 -21 10 -21 16 0 5 -15 16 -32 24 -18 8 -49 25 -68 37 -19 12 -129 70 -245 128 -236 120 -275 142 -275 153 0 4 -5 7 -11 7 -32 0 -216 162 -274 241 -5 8 -22 30 -36 49 -38 52 -103 186 -127 260 -95 295 -90 526 14 730 70 137 210 278 370 374 69 41 82 43 116 16z"/>
</g>
</svg>