<?xml version="1.0" encoding="utf-8"?>
<!-- Generator: Adobe Illustrator 23.0.1, SVG Export Plug-In . SVG Version: 6.00 Build 0)  -->
<svg version="1.1"
	 id="svg916" inkscape:version="1.1.2 (b8e25be833, 2022-02-05)" sodipodi:docname="CPI(M)_election_symbol_-_Hammer_Sickle_and_Star.svg" xmlns:cc="http://creativecommons.org/ns#" xmlns:dc="http://purl.org/dc/elements/1.1/" xmlns:inkscape="http://www.inkscape.org/namespaces/inkscape" xmlns:rdf="http://www.w3.org/1999/02/22-rdf-syntax-ns#" xmlns:sodipodi="http://sodipodi.sourceforge.net/DTD/sodipodi-0.dtd" xmlns:svg="http://www.w3.org/2000/svg"
	 xmlns="http://www.w3.org/2000/svg" xmlns:xlink="http://www.w3.org/1999/xlink" x="0px" y="0px" viewBox="0 0 612 540"
	 style="enable-background:new 0 0 612 540;" xml:space="preserve">
<style type="text/css">
	.st0{fill:#FFFFFF;fill-opacity:0;stroke:url(#path929_1_);stroke-width:5;}
	.st1{fill-rule:evenodd;clip-rule:evenodd;fill:#FFFFFF;fill-opacity:0;stroke:url(#path1085_1_);stroke-width:5;}
	.st2{fill-rule:evenodd;clip-rule:evenodd;fill:#FFFFFF;fill-opacity:0;stroke:url(#path860_1_);stroke-width:5;}
	.st3{fill:#FFFFFF;stroke:#000000;stroke-width:5;stroke-miterlimit:10;}
</style>
<sodipodi:namedview  bordercolor="#666666" borderopacity="1.0" id="base" inkscape:current-layer="layer1" inkscape:cx="273.47538" inkscape:cy="370.7424" inkscape:document-units="mm" inkscape:pagecheckerboard="0" inkscape:pageopacity="0.0" inkscape:pageshadow="2" inkscape:window-height="974" inkscape:window-maximized="1" inkscape:window-width="1920" inkscape:window-x="-11" inkscape:window-y="-11" inkscape:zoom="0.70938743" pagecolor="#ffffff" showgrid="false" units="in">
	</sodipodi:namedview>
<g id="layer1" transform="translate(0,-106.49998)" inkscape:groupmode="layer" inkscape:label="Layer 1">
	<g id="g977">
		<g id="g958">
			<g id="g951">
				<g id="g945">
					
						<linearGradient id="path929_1_" gradientUnits="userSpaceOnUse" x1="-73.4239" y1="463.2696" x2="141.7593" y2="463.2696" gradientTransform="matrix(2.8346 0 0 -2.8346 209.1496 1690.3599)">
						<stop  offset="0" style="stop-color:#000000"/>
						<stop  offset="1" style="stop-color:#000000"/>
					</linearGradient>
					
						<path id="path929" inkscape:connector-curvature="0" sodipodi:nodetypes="cccccccccccccccccccccccccccaccssccacccccccccccc" class="st0" d="
						M449.5,115.3c43.7,112.9,86.2,238.8,11.7,340.3c-90.8-97-127.7-137-127.7-137l-9.5,8c33.8-34.1,67.6-67.2,78.2-77.6
						c2.1-2.6,0.2-3.5-1.9-3.7l-85.9-5.8c-6.7-1.3-8.7-0.2-12.1,3.4c-12.8,13.3-55.1,57.1-89.1,93.8c-2.6,2.8-1.9,8.8,1,11.4
						c18.6,17.1,29,25.5,44,38.7c2.2,1.9,6.8,1.1,8.8-1.1c12.6-13.7,29-30.6,46-47.9c1.7,2,40.1,47.6,123.3,144.6
						c-102.2,88.9-217.3,45-305.5-47.9c0,0-4.1,0.3-5.9,1.2c-2.5,1.3-5.1,3.1-6.4,5.6c-0.9,1.6-0.8,5.6-0.8,5.6
						c1,1.4,1.9,2.7,2.9,4.1c-1.1,0.3-10.6,2.6-14.8,5.4c-2.1,1.4-5,5.7-5,5.7s-58.2,65.5-88.9,101.1c-2.3,2.7-4.7,6.9-3,10
						c9.1,17.3,19.3,26.5,33.5,28.1c3.1,0.3,7.5,1.9,9.4-0.5c47.8-63.1,51.5-68.1,86.9-117c1.1-1.5,2-4.3,2.5-6
						c54.1,66.1,132.2,108.6,213,114.9c48.8,3.8,103.5-16.9,138.2-48.7c24.2,28.2,38.5,48.4,68.5,83.2c6.3,7.8,16.7,10.8,25.5,8.9
						c7.3-1.5,13.6-8.4,16.2-15.3c2-5.2,2.6-11.9-1.8-16.6c-35.5-37.8-53.9-59.8-81.6-89.3c29.4-38.3,42.9-95.5,39.3-145.6
						C551.9,277.7,514.5,185,449.5,115.3L449.5,115.3z M419.1,133.4l-21.7,15.3l-20.2-14.1l7.8,22.2L362.3,171l26.5-1.5l6.2,22.8
						l8.6-23.2l26.5-0.1l-21.1-12.8L419.1,133.4z"/>
					
						<linearGradient id="path1085_1_" gradientUnits="userSpaceOnUse" x1="-116.2203" y1="479.1184" x2="181.0408" y2="479.1184" gradientTransform="matrix(2.8346 0 0 -2.8346 209.1496 1690.3599)">
						<stop  offset="0" style="stop-color:#000000"/>
						<stop  offset="1" style="stop-color:#000000"/>
					</linearGradient>
					<path id="path1085" class="st1" d="M312.9,337.9l11.1-11.3"/>
					
						<linearGradient id="path860_1_" gradientUnits="userSpaceOnUse" x1="-83.9179" y1="432.4944" x2="185.6482" y2="432.4944" gradientTransform="matrix(2.8346 0 0 -2.8346 209.1496 1690.3599)">
						<stop  offset="0" style="stop-color:#000000"/>
						<stop  offset="1" style="stop-color:#000000"/>
					</linearGradient>
					<path id="path860" class="st2" d="M120.4,451l20.5,26.9"/>
				</g>
			</g>
		</g>
	</g>
</g>
<path class="st3" d="M461.1,349.1c0,0-7.5,10.7-25,26.9"/>
<path class="st3" d="M519.1,408.4c0,0-8.8,12.2-26.9,29.1"/>
</svg>
