<svg xmlns="http://www.w3.org/2000/svg" viewBox="0 0 64 64" role="img" aria-label="West Bengal map">
  <defs>
    <linearGradient id="wbStroke" x1="10" y1="4" x2="54" y2="60" gradientUnits="userSpaceOnUse">
      <stop offset="0" stop-color="#ffffff"/>
      <stop offset="1" stop-color="#a7f3d0"/>
    </linearGradient>
    <filter id="wbNeon" x="-60%" y="-60%" width="220%" height="220%">
      <feGaussianBlur stdDeviation="2.2" result="blur"/>
      <feColorMatrix
        in="blur"
        type="matrix"
        values="0 0 0 0 0.22  0 0 0 0 1  0 0 0 0 0.70  0 0 0 0.85 0"
        result="tint"
      />
      <feMerge>
        <feMergeNode in="tint"/>
        <feMergeNode in="SourceGraphic"/>
      </feMerge>
    </filter>
  </defs>

  <!-- Simple outline style -->
  <path
    filter="url(#wbNeon)"
    d="M35 4
       L30 6 L26 10 L23 15 L24 20 L21 24 L22 29
       L19 33 L18 38 L21 42 L20 47 L23 52
       L28 56 L33 58 L35 61 L39 58 L43 56
       L47 52 L49 47 L52 44 L50 39 L52 34
       L50 28 L52 23 L50 19 L51 14 L48 10
       L44 8 L40 7 Z"
    fill="none"
    stroke="url(#wbStroke)"
    stroke-width="3.2"
    stroke-linejoin="round"
    stroke-linecap="round"
  />

  <path
    d="M36 48c4 1 8-1 10-4"
    fill="none"
    stroke="rgba(255,255,255,0.55)"
    stroke-width="2"
    stroke-linecap="round"
  />
</svg>
